<?xml version="1.0" encoding="UTF-8" standalone="no"?>
<svg
   xmlns:dc="http://purl.org/dc/elements/1.1/"
   xmlns:cc="http://creativecommons.org/ns#"
   xmlns:rdf="http://www.w3.org/1999/02/22-rdf-syntax-ns#"
   xmlns:svg="http://www.w3.org/2000/svg"
   xmlns="http://www.w3.org/2000/svg"
   viewBox="0 0 811.25 810"
   height="810"
   width="811.25"
   xml:space="preserve"
   version="1.1"
   id="svg2"><metadata
     id="metadata8"><rdf:RDF><cc:Work
         rdf:about=""><dc:format>image/svg+xml</dc:format><dc:type
           rdf:resource="http://purl.org/dc/dcmitype/StillImage" /></cc:Work></rdf:RDF></metadata><defs
     id="defs6" /><g
     transform="matrix(1.25,0,0,-1.25,0,810)"
     id="g10"><g
       transform="scale(0.1,0.1)"
       id="g12"><path
         id="path14"
         style="fill:#86c1bc;fill-opacity:1;fill-rule:nonzero;stroke:none"
         d="m 10,0 6480,0 0,6480 L 10,6480 10,0 Z" /><path
         id="path16"
         style="fill:#eea447;fill-opacity:1;fill-rule:nonzero;stroke:none"
         d="m 988.547,3746.83 c 54.153,-250.73 115.773,-657.91 -30.52,-890.92 -88.828,-141.49 -371.355,-122.87 -406.39,67.25 -35.383,191.95 97.883,392.68 249.617,434.5 -366.805,60.44 -582.305,-521.1 -420.711,-768.38 266.738,-408.2 827.297,97.65 1094.687,90.06 -27.38,199.46 65.17,399.69 -12.42,584.13 -77.34,183.89 -351.3,324.69 -474.263,483.36 l 0,0" /><path
         id="path18"
         style="fill:#efc7a0;fill-opacity:1;fill-rule:nonzero;stroke:none"
         d="m 1196.93,2613.53 c -0.11,0.13 -14.97,-14.78 -44.44,-38.99 -29.51,-24.1 -73.74,-57.87 -134.75,-90.67 -60.842,-32.31 -139.478,-64.33 -233.631,-73.77 -46.859,-4.62 -97.406,-3.3 -148.617,7.67 -51.117,10.86 -102.84,31.69 -149.152,63.75 -46.36,31.96 -84.422,73.47 -111.637,118.81 -27.344,45.37 -44,94.21 -51.906,141.3 -8,47.18 -7.559,92.61 -2.313,133.91 5.215,41.36 15.297,78.69 26.942,111.49 23.625,65.69 53.179,113.32 74.512,144.88 21.671,31.49 35.519,47.33 35.386,47.43 0.153,-0.06 -10.258,-18.43 -26.152,-52.65 -15.586,-34.23 -36.785,-84.7 -51.133,-149.09 -14.125,-63.99 -20.93,-143.15 -1.101,-224.51 9.816,-40.49 26.437,-81.09 50.835,-118.27 24.344,-37.16 56.516,-70.77 95.184,-97.45 38.648,-26.74 81.637,-45.26 125.262,-56.31 43.664,-11.13 87.894,-14.93 130.203,-13.79 84.922,2.33 161.371,23.95 223.178,47.47 61.98,23.86 110.08,49.87 142.86,68.53 32.8,18.77 50.38,30.4 50.47,30.26" /><path
         id="path20"
         style="fill:#393536;fill-opacity:1;fill-rule:nonzero;stroke:none"
         d="M 1652.3,2727.6 C 1410.7,2722.65 1242.81,2648.68 692.555,2507.92 142.297,2367.18 0,2223.49 0,2223.49 L 0,4.44922 l 5001.07,0 c 0,0 146.08,1745.28078 -168.12,2183.03078 -314.18,437.74 -2642.83,551.16 -3180.65,540.12" /><path
         id="path22"
         style="fill:#ffffff;fill-opacity:1;fill-rule:nonzero;stroke:none"
         d="M 1538.44,2526.57 2626.46,4.44922 l 16.35,0 196.71,2127.06078 -1301.08,395.06" /><path
         id="path24"
         style="fill:#3871c1;fill-opacity:1;fill-rule:nonzero;stroke:none"
         d="m 2352.32,2111.59 c 0,0 -65.51,-244.79 -80.72,-324.12 -9.8,-51.15 -130.18,-648.53 -126.4,-669.3 C 2196.58,835.629 2630.5,4.44922 2630.49,4.44922 l 103.55,0 16.81,1667.28078 c 0,0 -48.21,149.84 -81.44,280.92 -33.25,131.07 -78.09,243.13 -78.09,243.13 l -239,-84.19" /><path
         id="path26"
         style="fill:#3871c1;fill-opacity:1;fill-rule:nonzero;stroke:none"
         d="M 2205.34,2511.78 2104.8,2389.53 c 0,0 171.73,-258.08 224.7,-300.08 52.96,-42 81.5,-31.55 156.97,-11.52 75.47,20.03 247.27,265.67 247.27,265.67 l -141.31,162.4 -387.09,5.78" /><path
         id="path28"
         style="fill:#5a3114;fill-opacity:1;fill-rule:nonzero;stroke:none"
         d="m 4052.01,2488.72 c -0.04,-0.17 -63.47,23.26 -165.39,61.24 -102.05,37.53 -242.53,89.84 -400.74,133.9 -39.58,10.97 -78.38,20.84 -116.08,29.4 l -56.13,12.37 c -18.49,4.22 -36.5,8.58 -54.01,12.93 -69.99,17.6 -132.22,34.54 -185,46.71 -105.33,25.15 -172.92,30.31 -172.88,30.52 -0.19,-0.21 67.87,6.35 176.97,-7.58 54.41,-6.6 118.69,-18 189.26,-31.26 l 110.95,-20.1 c 38.95,-7.5 78.91,-16.92 119.36,-28.13 80.92,-22.45 156,-49.9 222.91,-77.56 66.89,-27.67 125.72,-55.55 174.63,-79.85 97.68,-48.82 156.06,-82.73 156.15,-82.59" /><path
         id="path30"
         style="fill:#5a3114;fill-opacity:1;fill-rule:nonzero;stroke:none"
         d="m 731.422,2480.76 c 0.016,-0.09 40.398,18.97 107.82,44.02 67.344,25.21 161.808,55.58 266.938,83.76 26.33,7.08 51.84,13.77 76.9,20.09 26.09,6.52 51.19,10.52 74.93,13.66 47.49,6.12 89.63,9.28 124.8,13.74 35.15,4.25 63.33,9.59 82.61,14.62 19.31,4.92 29.79,8.93 29.82,8.79 -0.06,0.12 -9.13,-6.46 -27.28,-15.6 -18.06,-9.26 -45.52,-20.43 -80.42,-30.61 -34.82,-10.32 -76.99,-19.36 -122.62,-29.6 -22.8,-5.18 -46.42,-10.8 -69.95,-17.96 -24.51,-7.45 -50.32,-15.02 -76.67,-22.07 -105.67,-28.32 -202.523,-47.3 -272.741,-61.23 -70.239,-13.75 -114.11,-21.68 -114.137,-21.61" /><path
         id="path32"
         style="fill:#231f20;fill-opacity:1;fill-rule:nonzero;stroke:none"
         d="m 1926.22,1591.94 c -0.14,-0.04 -27.83,57.56 -74.58,149.1 l -82.61,160.49 c -31.03,60.47 -64.96,127.04 -98.71,198.19 -68.05,144.25 -103.82,283.05 -137.51,379.47 -16.4,48.88 -28.39,89.15 -35.36,117.25 -7.01,28.1 -9.63,43.86 -9.72,43.84 0.08,0.02 5.54,-15.02 16.62,-41.54 11.07,-26.6 28.32,-64.33 50.1,-110.98 45.05,-93.71 91.78,-228.1 157.97,-368.16 33.55,-70.72 64.93,-138.73 92.11,-201.25 27.23,-62.5 50.27,-119.55 68.4,-167.93 36.35,-96.76 53.15,-158.54 53.29,-158.48" /><path
         id="path34"
         style="fill:#231f20;fill-opacity:1;fill-rule:nonzero;stroke:none"
         d="m 2763.78,1488 21.1,183.96 c 13.33,113.52 30.71,270.23 55.83,442.83 6.35,43.25 12.88,84.95 19.74,126.07 1.53,10.36 3.98,20.52 6.07,30.62 l 6.49,29.41 13.17,56.66 c 17.64,73.63 34.91,139.4 49.09,194.73 7.07,27.62 13.65,52.77 18.9,74.6 5.09,22.01 9.48,41.43 14.67,56.82 10.09,31.15 22.87,44.69 22.58,44.64 0.23,0.03 -9.99,-15.25 -15.54,-46.47 -2.96,-15.53 -4.76,-34.77 -7.19,-57.5 -2.69,-22.86 -6.37,-48.34 -10.61,-76.74 -8.52,-56.66 -20.14,-123.85 -33.46,-198.11 l -10.2,-56.97 -5.21,-29.37 c -1.6,-9.72 -3.64,-19.46 -4.8,-29.5 -5.42,-40.15 -11.32,-82.65 -17.63,-125.65 -25.12,-172.49 -54.08,-328.09 -78.95,-439.91 -24.65,-111.87 -44.12,-180.1 -44.05,-180.12" /><path
         id="path36"
         style="fill:#231f20;fill-opacity:1;fill-rule:nonzero;stroke:none"
         d="m 1797.32,1819.66 c 0.37,-0.16 1.66,43.4 21.07,111.09 9.65,33.75 24.09,73.21 43.83,115.26 19.72,42.03 44.74,86.6 74.13,131.01 58.95,88.88 122.32,160.94 168.45,212.51 46.41,51.38 76.37,82.26 76.37,82.3 0.03,0 -20.63,-37.89 -57.82,-96.37 -36.92,-58.66 -90.64,-137.37 -148.16,-224.08 -28.72,-43.44 -55.36,-85.04 -78.25,-123.72 -22.88,-38.67 -42.04,-74.39 -56.8,-105.19 -29.59,-61.57 -42.49,-102.96 -42.82,-102.81" /><path
         id="path38"
         style="fill:#5a3114;fill-opacity:1;fill-rule:nonzero;stroke:none"
         d="m 2492.73,1887.53 c 0.01,0.05 -6.14,1.46 -16.89,5.59 -10.69,4.13 -26.01,11.28 -43.23,23.01 -17.29,11.63 -36.19,27.9 -54.93,47.02 -9.41,9.56 -18.82,19.77 -28.32,30.23 l -7.16,7.9 -4.12,4.59 -4.13,5.6 -12.88,17.25 c -17.74,23.38 -35.34,46.23 -50.4,68.19 -15.12,21.9 -27.68,42.88 -36.79,61.3 -18.58,36.94 -22.27,62.58 -22.42,62.37 0.17,0.05 14.61,-20.67 41.58,-49.16 13.42,-14.37 29.85,-30.88 48.05,-49.66 18.14,-18.84 38.13,-39.97 57.11,-64.95 4.74,-6.21 9.26,-12.62 13.55,-19.08 l 1.59,-2.41 0.7,-1.09 c -0.02,0.02 -0.09,0.08 -0.08,0.06 -0.34,0.35 0.77,-1 1.21,-1.57 l 1.74,-2.18 6.73,-8.73 c 8.76,-11.58 16.7,-22.84 24.17,-33.46 14.87,-21.29 28.1,-39.98 40.42,-54.95 24.39,-30.09 44.71,-45.66 44.5,-45.87" /><path
         id="path40"
         style="fill:#5a3114;fill-opacity:1;fill-rule:nonzero;stroke:none"
         d="m 2453.56,1895.04 c -0.01,-0.02 6.45,3.35 18.46,8.7 11.97,5.38 29.61,12.5 51.06,20.98 21.36,8.57 46.62,18.43 71.98,31.93 12.65,6.76 25.3,14.44 37.38,23.4 6.05,4.44 11.92,9.27 17.64,14.38 2.97,2.57 5.53,5.11 8.36,7.85 l 8.65,8.84 c 46.63,48.75 84.93,98.01 109.85,135.86 25.02,37.87 36.55,64.81 36.74,64.72 -0.23,0.18 -0.21,-29.6 -15.81,-74.92 -15.46,-44.97 -46.34,-104.69 -97.23,-157.92 -3.16,-3.29 -6.43,-6.57 -9.81,-9.83 -3.45,-3.24 -7.18,-6.65 -10.82,-9.57 -7.3,-6.04 -14.88,-11.5 -22.6,-16.31 -15.43,-9.68 -31.29,-16.93 -46.57,-22.46 -30.65,-10.98 -58.73,-15.43 -81.98,-18.51 -23.26,-2.95 -42.01,-4.35 -55.03,-5.49 l -20.27,-1.65" /><path
         id="path42"
         style="fill:#231f20;fill-opacity:1;fill-rule:nonzero;stroke:none"
         d="m 2200.8,1488.02 c 0.17,-0.22 -3.26,111.54 30.55,242.23 33.59,130.72 90.11,227.08 89.85,226.97 0.17,-0.18 -11.75,-109.94 -44.76,-238.58 -33.28,-128.51 -75.41,-230.51 -75.64,-230.62" /><path
         id="path44"
         style="fill:#231f20;fill-opacity:1;fill-rule:nonzero;stroke:none"
         d="m 2736.79,1690.32 c 0.08,0.01 -13.69,23.57 -30.52,63.86 -16.98,40.19 -36.27,97.1 -51.83,160.49 -15.54,63.39 -26.01,121.13 -34.62,163.28 l -13.76,68.82 c -0.14,-0.06 16.07,-22.05 35.76,-61.23 19.87,-39.05 42.11,-95.61 57.81,-159.68 15.72,-64.07 23.5,-122.85 29.12,-165.65 5.43,-42.8 8.1,-69.86 8.04,-69.89" /><path
         id="path46"
         style="fill:#5a3114;fill-opacity:1;fill-rule:nonzero;stroke:none"
         d="m 2812.71,2218.79 c -0.15,-0.09 -11.27,20.2 -33,48.04 -21.56,28.1 -54.09,63.39 -90.29,102.8 -36.11,39.44 -68.54,76.68 -91.62,104.66 -23.17,27.91 -36.81,46.48 -36.77,46.52 -0.03,-0.08 20.94,-9.57 52.09,-29 31.02,-19.48 72.52,-49.14 110.68,-90.79 38.21,-41.52 64.14,-87.58 76.39,-123.14 12.62,-35.66 12.33,-59.25 12.52,-59.09" /><path
         id="path48"
         style="fill:#231f20;fill-opacity:1;fill-rule:nonzero;stroke:none"
         d="m 1423.15,1470.42 c 0.11,0.2 -100.78,21.48 -259.52,71.51 -39.68,12.43 -82.98,26.55 -129.25,42.16 l -71.575,24.49 -18.215,6.33 -9.195,3.21 -2.227,0.76 -1.527,0.4 -4.45,1.2 -39.109,10 c -26.809,6.95 -54.387,14.62 -82.453,23.85 -28.086,9.35 -56.66,19.78 -85.742,35 -14.528,7.85 -29.282,16.45 -44.082,30.45 -3.676,3.49 -7.364,7.55 -10.887,12.26 -0.887,1.19 -1.766,2.33 -2.609,3.67 -0.899,1.38 -2.137,3.3 -3,4.9 -1.864,3.29 -3.446,6.7 -4.782,10.23 -1.265,3.53 -2.207,7.18 -3.109,10.83 -0.332,3.71 -0.246,7.5 0.023,11.28 0.141,1.9 0.293,3.72 0.614,5.79 l 0.91,5.34 c 0.609,2.63 1.191,5.39 1.933,7.82 5.809,19.95 14.379,35.25 23.415,50.12 9.148,14.69 19.089,28.34 29.792,41.52 5.356,6.59 10.864,13.01 16.68,19.34 l 4.438,4.76 2.015,2.08 0.012,0 0.02,0.02 0.875,1.44 3.007,5 23.914,39.71 46.7,77.81 c 30.656,51.04 60.367,100.31 89.093,147.06 57.391,93.55 111.031,176.89 158.091,245.52 93.95,137.52 160.72,216.08 160.45,216.21 0.25,-0.16 -53.31,-88.01 -132.98,-233.11 -39.97,-72.5 -86.35,-159.41 -138.416,-255.82 -26.066,-48.18 -53.606,-98.75 -82.844,-150.85 -14.629,-26.07 -29.652,-52.52 -45.172,-79.26 l -23.633,-40.29 -2.996,-5.05 -2.144,-3.61 c -1.055,-1.62 -1.856,-3.44 -3.121,-4.91 l -6.172,-6.36 -3.586,-3.86 c -4.801,-5.26 -9.555,-10.83 -14.168,-16.51 -9.238,-11.35 -17.852,-23.15 -25.313,-34.92 -7.351,-11.63 -13.761,-23.89 -16.64,-33.57 -0.418,-1.24 -0.594,-2.25 -0.918,-3.34 -0.117,-0.75 -0.094,-0.48 -0.078,-0.35 0.019,0.18 0,0.11 -0.008,0.09 -0.039,-0.04 -0.074,-0.11 -0.078,-0.17 l -0.004,-0.13 c 0.051,-0.07 -0.133,0.26 -0.027,0.02 0.128,-0.3 0.433,-0.66 0.664,-1.01 1.007,-1.4 2.355,-3.07 4.132,-4.84 7.032,-7.15 18.086,-14.63 29.614,-21.15 23.402,-13.21 49.648,-24.09 75.578,-33.95 26.058,-9.82 52.246,-18.51 78.09,-26.78 l 38.91,-12.4 5.117,-1.72 3.219,-1.12 2.422,-1.01 9.308,-3.9 18.407,-7.76 69.517,-29.55 124.67,-53.09 c 152.39,-64.9 248.45,-101.59 248.4,-101.79" /><path
         id="path50"
         style="fill:#231f20;fill-opacity:1;fill-rule:nonzero;stroke:none"
         d="m 2002.65,4.44922 -231.22,207.19878 -172.54,155.954 -90.86,82.859 -46.15,42.23 -23.2,21.25 c -8.04,7.071 -14.48,14.207 -22.54,21.95 -67.58,66.718 -136.89,127.89 -203.94,185.14 l -49.8,42.379 c -8.56,7.32 -15.37,12.692 -23.1,20.32 -8.2,7.629 -16.43,14.829 -24.61,21.872 -16.38,14 -32.59,27.148 -48.19,40.128 l -22.85,19.36 -17.09,15.16 -12.27,31.109 c -0.72,1.68 -1.5,2.711 -1.25,4.289 0.16,0.711 0.53,1.332 0.9,1.981 l 0.64,1.019 2.83,3.981 c 3.93,5.519 7.75,11.281 11.28,16.992 l 5.15,8.578 3.39,5.86 2.32,6.011 c 4.21,11.149 8.72,22.102 13.45,32.828 18.95,42.932 41.38,82.402 63.58,119.272 44.84,73.52 87.17,137.96 116.08,194.66 29.47,56.45 46.38,104.12 55.44,137.08 9.1,33.01 11.47,51.24 11.67,51.18 -0.19,0.08 -4.67,-17.79 -16.98,-49.42 -12.27,-31.6 -33.33,-76.54 -66.89,-129.23 -33.07,-53.07 -79.42,-112.8 -129.95,-184.37 -25.04,-35.95 -50.84,-75.28 -73.58,-119.83 -5.68,-11.14 -11.14,-22.599 -16.319,-34.381 l -0.938,-2.129 -0.258,-0.492 -1.441,-2.117 -4.891,-7.25 c -3.32,-4.793 -6.714,-9.391 -10.371,-14.012 l -2.879,-3.629 -5.039,-6.64 c -3.277,-4.559 -5.98,-9.391 -7.48,-14.711 -3.242,-10.68 -0.109,-22.289 3.695,-32.668 l 6.426,-18.539 7.867,-24.16 c 13.571,-13.711 18.598,-18.653 26.678,-26.321 7.58,-7.152 15.27,-14.179 22.99,-21.152 l 46.19,-41.437 c 7.56,-6.973 15.04,-13.961 22.22,-21.09 7.18,-7.61 16.82,-15.981 24.46,-22.891 l 48.6,-43.629 c 65.46,-58.633 132.73,-119.633 198.98,-185.043 7.4,-7.09 15.39,-15.738 23.37,-22.699 l 23.84,-21.648 47.2,-42.481 c 31.14,-27.902 62.13,-55.039 92.62,-81.66 61.12,-53.09 120.73,-103.5 177.96,-151 83.82,-69.402 137.44,-110.2696 208.54,-166.01178 l 58.26,0" /><path
         id="path52"
         style="fill:#231f20;fill-opacity:1;fill-rule:nonzero;stroke:none"
         d="m 3343.49,1440.26 c -0.18,0.15 93.07,44.2 235.94,129.57 35.72,21.27 74.57,45.02 115.98,70.92 l 63.98,40.39 16.26,10.36 8.2,5.25 2,1.25 1.38,0.74 4.05,2.19 35.75,18.79 c 24.46,12.97 49.53,26.79 74.69,42.26 25.16,15.61 50.57,32.35 75.33,53.89 12.33,10.98 24.69,22.76 35.84,39.8 2.77,4.27 5.42,9.06 7.77,14.45 0.59,1.37 1.16,2.68 1.68,4.19 0.55,1.55 1.33,3.69 1.8,5.45 1.05,3.63 1.78,7.32 2.29,11.07 0.41,3.71 0.47,7.48 0.5,11.26 -0.52,3.67 -1.5,7.35 -2.61,10.96 -0.6,1.81 -1.16,3.54 -1.96,5.49 l -2.11,4.99 c -1.21,2.42 -2.42,4.96 -3.69,7.16 -10.27,18.05 -22.15,30.95 -34.36,43.33 -12.31,12.18 -25.13,23.18 -38.59,33.51 -6.74,5.18 -13.59,10.16 -20.7,14.97 l -5.43,3.6 -2.44,1.56 -0.01,0.01 -0.03,0 -1.17,1.19 -4.1,4.17 -32.44,33.1 -63.43,64.91 c -41.61,42.56 -81.91,83.63 -120.68,122.48 -77.47,77.73 -148.92,146.41 -210.58,202.31 -123.21,112.05 -206.33,173.06 -206.11,173.24 -0.19,-0.21 72.23,-73.3 183.3,-196.03 55.64,-61.31 120.87,-135.12 193.81,-216.9 36.51,-40.84 74.99,-83.66 115.5,-127.6 20.24,-21.97 40.98,-44.23 62.26,-66.66 l 32.31,-33.73 4.08,-4.22 2.92,-3.02 c 1.42,-1.33 2.61,-2.91 4.17,-4.05 l 7.48,-4.76 4.38,-2.93 c 5.9,-4.01 11.81,-8.33 17.6,-12.79 11.63,-8.91 22.73,-18.4 32.71,-28.12 9.83,-9.62 18.91,-20.06 23.96,-28.82 0.69,-1.1 1.1,-2.05 1.67,-3.04 0.26,-0.69 0.18,-0.43 0.13,-0.32 -0.06,0.18 -0.02,0.12 0,0.1 0.05,-0.03 0.1,-0.09 0.11,-0.17 l 0.03,-0.11 c -0.03,-0.09 0.08,0.28 0.04,0.03 -0.07,-0.32 -0.28,-0.73 -0.42,-1.13 -0.65,-1.6 -1.57,-3.54 -2.9,-5.67 -5.2,-8.58 -14.21,-18.42 -23.93,-27.42 -19.7,-18.26 -42.73,-34.92 -65.68,-50.51 -23.08,-15.58 -46.54,-30.1 -69.77,-44.12 l -35,-21.04 -4.57,-2.87 -2.88,-1.83 -2.12,-1.55 -8.14,-5.95 -16.11,-11.8 -60.82,-44.82 -109.01,-80.49 c -133.25,-98.37 -218.23,-156.28 -218.11,-156.47" /><path
         id="path54"
         style="fill:#231f20;fill-opacity:1;fill-rule:nonzero;stroke:none"
         d="m 3917.08,1017.92 c -2.69,4.82 -6.44,8.89 -10.69,12.58 l -6.42,5.29 -3.66,2.87 c -4.61,3.65 -8.99,7.33 -13.32,11.23 l -6.43,5.92 -1.89,1.74 -0.37,0.41 -1.4,1.85 c -7.76,10.27 -15.73,20.14 -23.82,29.67 -32.44,38.09 -66.64,70.39 -99.31,99.57 -65.71,57.95 -124.59,105.33 -169.07,149.32 -44.82,43.51 -75.7,82.37 -94.94,110.27 -19.3,27.93 -27.77,44.27 -27.95,44.15 0.18,0.1 6.69,-17.09 23.19,-47.1 16.42,-29.98 43.9,-72.44 85.64,-120.54 41.23,-48.48 97.32,-101.39 157.93,-162.54 30.13,-30.74 61.08,-63.95 89.45,-101.33 7.08,-9.36 13.99,-18.97 20.67,-28.84 l 3.64,-5.3 4.66,-4.91 6.99,-7.18 c 4.77,-4.73 9.81,-9.43 14.91,-13.91 l 3.67,-3.218 0.85,-0.84 c 0.52,-0.551 1.02,-1.062 1.35,-1.723 0.6,-1.457 0.09,-2.66 -0.23,-4.468 l -4.74,-33.09 -13.11,-18.711 -17.78,-24.11 c -12.17,-16.238 -24.89,-32.781 -37.59,-50.199 -6.33,-8.742 -12.7,-17.64 -18.88,-26.961 -5.77,-9.199 -11.15,-16.019 -17.8,-25.109 l -38.64,-52.742 C 3670,688.762 3616.7,613.211 3566.41,532.691 c -6.06,-9.39 -10.68,-17.839 -16.86,-26.589 l -17.67,-26.043 -35.12,-51.75 L 3427.52,326.691 3295.72,135.07 3206,5.92969 c 19.06,-1.01953 38.1,-2.08985 57.15,-3.23828 24.96,32.33989 50.51,65.76949 76.71,100.53859 44.7,59.442 91.03,122.27 138.23,188.051 23.49,32.949 47.38,66.52 71.22,100.86 l 36.1,52.25 18.16,26.57 c 6.17,8.621 11.95,18.879 17.51,27.488 49.31,78.949 100.66,153.84 150.8,226.051 l 37.18,53.691 c 5.84,8.457 13.28,18.848 18.5,27.911 5.35,8.617 11.02,17.148 16.75,25.668 l 35.34,50.992 c 5.92,8.558 11.77,17.179 17.5,25.886 6.07,9.332 9.83,15.313 19.86,31.793 l 2.07,25.309 1.96,19.512 c 1.3,11 1.66,23.008 -3.96,32.658" /><path
         id="path56"
         style="fill:#efc7a0;fill-opacity:1;fill-rule:nonzero;stroke:none"
         d="m 1291.48,3236.96 c -0.25,0.04 0.99,-26.83 -5.1,-75.21 -6.19,-48.21 -20.57,-118.11 -53.56,-199.75 -16.51,-40.77 -37.64,-84.37 -64.96,-128.79 -27.35,-44.35 -60.87,-89.69 -102.82,-132.07 -41.89,-42.18 -92.591,-81.77 -153.399,-109.67 -60.414,-28.04 -131.832,-42.69 -203.465,-35.56 -35.738,3.38 -70.348,11.62 -102.746,23.32 l -23.274,8.78 c -7.972,3.11 -15.851,6.52 -23.621,10.12 -15.547,7.27 -30.676,15.52 -45.051,25 -28.765,18.85 -54.507,42.88 -73.964,70.53 -19.653,27.57 -32.747,58.15 -40.969,88.09 -16.149,60.39 -15.391,117.6 -12.199,169.29 3.503,51.36 10.195,100.4 23.519,143.3 13,43.06 32.109,79.38 51.707,108.4 19.617,29.12 39.149,51.75 55.324,69.87 32.664,35.95 52.067,54.35 51.95,54.46 0.148,-0.08 -16.25,-21.36 -43.786,-60.88 -26.691,-39.57 -66.785,-98.29 -82.972,-180.07 -8.446,-40.76 -10.707,-86.42 -10.301,-136.43 0.609,-49.4 4.125,-102.3 20.473,-151.73 8.257,-24.58 19.851,-47.99 35.843,-68.5 15.871,-20.56 36.094,-38.2 59.664,-52.71 11.77,-7.27 24.368,-13.76 37.571,-19.55 6.613,-2.89 13.344,-5.65 20.246,-8.21 l 21.711,-7.75 c 28.047,-9.65 57.289,-16.31 87.133,-19.14 59.73,-5.83 118.671,5.04 171.484,27.58 52.973,22.41 99.898,55.48 140.322,92.02 40.5,36.63 74.76,76.82 103.83,116.75 29.05,40.01 52.92,79.86 72.56,117.46 39.26,75.33 61.39,141.45 73.55,187.82 12.09,46.5 15.07,73.3 15.3,73.23" /><path
         id="path58"
         style="fill:#efc7a0;fill-opacity:1;fill-rule:nonzero;stroke:none"
         d="m 820.48,3236.2 c -0.074,-0.03 -0.89,7.13 -3.667,20.44 -1.426,6.63 -3.399,14.81 -6.547,24.1 -3.203,9.19 -7.536,19.77 -14.719,29.54 -7.106,9.72 -17.699,18.17 -31.09,19.64 -13.336,1.7 -28.656,-2.94 -43.629,-11.11 -30.121,-16.6 -59.887,-45.44 -87.801,-80.27 -13.902,-17.5 -27.402,-36.78 -39.449,-57.63 -5.98,-10.41 -11.613,-21.25 -16.316,-32.27 -2.336,-5.51 -4.434,-11.07 -6.09,-16.5 l -2.5,-9 c -1,-3.32 -1.848,-6.43 -2.563,-9.4 -12.125,-48.38 -11.289,-104.39 3.321,-158.86 14.535,-54.11 43.988,-108.19 89.867,-142.32 22.808,-16.96 49.398,-28.45 78.164,-32.8 29.043,-4.54 57.977,-2.05 84.519,9.14 26.665,10.97 50.387,30.17 70.711,53.28 20.395,23.08 37.489,49.88 52.368,77.61 29.668,55.75 50.761,115.08 68.691,172.47 4.45,14.36 8.72,28.65 12.83,42.83 l 6.09,21.22 c 1.97,6.91 3.74,13.43 5.39,20.15 6.56,26.74 10.71,53.44 13.15,79.54 4.81,52.27 2.89,102.09 -1.06,147.52 -4.02,45.47 -10.11,86.7 -15.82,122.92 l -15.57,93.02 c -8.72,51.14 -12.7,79.58 -12.7,79.57 l 22.83,-77.22 c 7.34,-24.87 16.37,-55.28 26.01,-90.97 9.59,-35.67 19.89,-76.64 28.21,-122.91 8.23,-46.23 14.6,-97.96 13.49,-154.45 -0.61,-28.23 -3.14,-57.57 -8.57,-87.57 -1.34,-7.44 -2.94,-15.14 -4.57,-22.48 l -4.93,-21.82 c -3.37,-14.69 -6.94,-29.57 -10.79,-44.63 -15.56,-60.19 -34.94,-123.55 -66.14,-186.42 -15.76,-31.31 -34.545,-62.62 -59.276,-91.51 -24.554,-28.71 -55.933,-55.43 -94.781,-71.56 -38.691,-16.44 -82.059,-19.44 -120.719,-12.62 -39.222,6.47 -76.371,23.5 -106.273,47.2 -30.086,23.64 -53.145,53.17 -70.242,84.01 -17.118,30.96 -28.473,63.42 -35.442,95.69 -13.699,64.55 -10.719,128.66 7.617,184.78 1.168,3.6 2.344,6.94 3.524,10 l 3.664,10.19 c 2.801,7.16 5.93,13.78 9.219,20.14 6.597,12.7 13.859,24.22 21.379,35.15 15.074,21.78 31.218,41.05 47.726,58.41 33.164,34.36 67.5,62.02 103.875,77.42 18.031,7.43 37.578,11.55 55.496,7.22 8.863,-2.12 16.766,-6.43 22.86,-11.74 6.144,-5.31 10.609,-11.43 14.05,-17.42 6.77,-12.09 9.793,-23.67 11.907,-33.57 2.019,-9.97 2.921,-18.46 3.461,-25.29 1,-13.7 0.761,-20.87 0.835,-20.86" /><path
         id="path60"
         style="fill:#efc7a0;fill-opacity:1;fill-rule:nonzero;stroke:none"
         d="m 866.266,2592.59 c -0.254,0.41 45.375,19 113.656,54.88 68.068,36.07 157.888,91.22 238.528,170.55 40.39,39.57 74.79,81.23 102.81,122.02 28.04,40.8 49.95,80.44 66.71,114.95 16.8,34.49 28.61,63.74 36.6,84.12 l 12.13,31.95 c -0.07,0 -0.11,-12.22 -2.02,-34.31 -1.97,-22.05 -5.87,-54.06 -15.42,-92.99 -9.51,-38.89 -24.93,-84.79 -49.87,-132.56 -24.84,-47.67 -59.7,-96.93 -104.4,-140.68 -44.71,-43.77 -94.27,-77.5 -141.68,-102.17 -47.48,-24.73 -92.69,-40.92 -131.048,-51.76 -76.957,-21.35 -126.117,-23.49 -125.996,-24" /><path
         id="path62"
         style="fill:#e19257;fill-opacity:1;fill-rule:nonzero;stroke:none"
         d="m 1754.62,4996.41 c 0,0 -149.43,-572.44 -461.11,-729.12 -311.69,-156.67 -154.47,-395.73 -152.47,-462.11 2,-66.37 -62.54,-491.58 109.93,-532.95 172.48,-41.36 221.54,-10.44 221.54,-10.44 0,0 -299.98,-210.51 -145.2,-467.76 154.77,-257.25 377.22,-479.28 656.93,-579.04 279.72,-99.77 435.39,-81.46 435.39,-81.46 0,0 125.69,-99.57 313.47,-103.47 187.78,-3.92 342.25,34.31 342.25,34.31 0,0 98.87,50.27 170.61,101.07 71.75,50.79 185.5,316.02 185.5,316.02 0,0 191.78,89.23 241.47,193.45 49.67,104.21 81.89,352.34 81.89,352.34 0,0 62.5,35.85 97.61,210.86 35.14,175.03 -18.88,311.45 -26.83,416.68 -7.97,105.24 -59.64,228.33 -39.84,365.9 19.81,137.58 141.06,629.59 141.06,629.59 l -2172.2,346.13" /><path
         id="path64"
         style="fill:#d07d49;fill-opacity:1;fill-rule:nonzero;stroke:none"
         d="m 2071.54,4549.53 c 182.68,-102.62 372.48,-192.46 566.02,-272.62 111.85,-46.31 224.95,-89.65 339.25,-129.54 98.3,-34.3 197.17,-67.51 298.85,-90.45 169.53,-38.22 384.95,-61.41 527.5,58.52 32.59,159.45 95.38,419.06 116.51,505.65 -2.64,10.61 -5.38,21.19 -8.38,31.66 l -2156.67,343.66 c 0,0 -21.94,-84 -66.5,-196.42 120.55,-93.79 250.49,-175.8 383.42,-250.46" /><path
         id="path66"
         style="fill:#d07d49;fill-opacity:1;fill-rule:nonzero;stroke:none"
         d="m 2268.99,2199.03 c -31.42,41.98 -58.34,88.73 -72.54,139.51 -11.77,42.05 -3.09,87.9 -2.04,130.76 0.48,20.12 3.04,51.72 -11.55,68.3 -9.52,10.83 -34.34,11.02 -47.67,13.07 -37.51,5.83 -72.46,11.82 -108.76,23.04 -62.6,19.37 -123.03,41.28 -176.77,79.56 -51.9,36.96 -98.52,80.72 -141.12,128.03 -42.22,46.93 -78.32,99.08 -120.77,145.62 -34.96,38.31 -72.79,74.05 -106.13,113.82 -25.74,30.7 -58.15,69.38 -62.55,111.05 -2.5,23.57 0.43,47.31 6.13,70.46 -77.63,-72.67 -212.6,-237.61 -97.91,-428.22 154.77,-257.25 377.22,-479.28 656.93,-579.04 229.8,-81.97 323.21,-88.53 349.25,-88.26 -23.49,22.38 -45.18,46.5 -64.5,72.3" /><path
         id="path68"
         style="fill:#d07d49;fill-opacity:1;fill-rule:nonzero;stroke:none"
         d="m 1443.06,3275.97 c 19.61,48.22 44.79,94.11 72.46,138.13 23.68,37.68 48.05,77.16 77.38,110.8 86.01,98.71 338.62,316.16 625.76,324.61 -110.88,11.31 -322.95,23.38 -473.75,80.69 -56.91,21.63 -84.03,92.86 -91.82,155.51 -12.78,102.67 43.23,207.7 95.71,291.62 74.92,119.82 172.04,230.76 215.49,367.5 16.58,52.21 27.83,107.18 14.17,161.48 -2.77,11.05 -6.39,21.78 -10.73,32.17 l -213.11,57.93 c 0,0 -149.43,-572.44 -461.11,-729.12 -311.69,-156.67 -154.47,-395.73 -152.47,-462.11 2,-66.37 -62.54,-491.58 109.93,-532.95 93.21,-22.36 150.33,-23.58 183.18,-20.01 2.8,8.05 5.75,16.01 8.91,23.75" /><path
         id="path70"
         style="fill:#eea447;fill-opacity:1;fill-rule:nonzero;stroke:none"
         d="m 3779.2,4329.37 c 0,0 -49.92,-139.91 -19.81,-297.89 30.1,-157.99 6.37,-293.76 69.7,-434.56 63.35,-140.79 -2.83,-377.71 -2.83,-377.71 0,0 123.31,297.51 146.49,550.24 23.21,252.74 -15.89,855.02 -15.89,855.02 l -177.66,-295.1" /><path
         id="path72"
         style="fill:#eea447;fill-opacity:1;fill-rule:nonzero;stroke:none"
         d="M 1181.79,5410.8 C 685.094,4904.93 839.758,3937.71 1170.3,3397.33 c -40.43,238.68 -90.41,509.25 65.33,715.79 147.02,194.99 324.23,329.09 435.52,561.35 236.73,494.08 -110.92,531.99 -489.36,736.33 l 0,0" /><path
         id="path74"
         style="fill:#efc7a0;fill-opacity:1;fill-rule:nonzero;stroke:none"
         d="m 938.5,4859.12 c 0.152,-0.01 -0.148,16.75 3.504,47.06 3.832,30.17 11.898,74.35 33.465,125.86 21.344,51.3 57.311,109.75 111.901,161.53 54.18,51.92 126.69,95.95 208.87,122.41 20.45,6.67 41.27,12.14 61.43,16.5 20.59,4.61 41.59,7.77 61.95,9.61 40.87,3.73 80.34,2.4 117.36,-2.3 74.11,-9.46 138.14,-33.25 186.37,-61.62 48.52,-28.34 80.7,-60.87 99.59,-84.89 18.98,-24.19 26.08,-39.5 26.31,-39.33 -0.17,-0.22 -10.93,12.92 -33.76,32.09 -22.76,19.07 -58.42,43.3 -106.78,62.28 -95.86,38.16 -244.34,55.23 -391.93,4.4 -74.08,-23.91 -139.9,-59.28 -192.45,-101.37 -52.76,-41.9 -92.06,-90 -119.25,-134.43 -27.369,-44.46 -43.205,-84.81 -52.947,-113.07 -9.621,-28.38 -13.5,-44.79 -13.633,-44.73" /><path
         id="path76"
         style="fill:#efc7a0;fill-opacity:1;fill-rule:nonzero;stroke:none"
         d="m 927.324,4781.57 c 0.344,-0.36 24.028,48.97 81.756,116.13 28.84,33.4 66.34,70.9 112.78,107.1 46.37,36.19 101.76,71.12 164.71,98.37 62.89,27.29 127.17,43.82 186.56,50.04 59.43,6.41 113.64,2.41 157.48,-6.49 43.99,-8.84 77.59,-22.18 99.85,-32.56 22.28,-10.52 33.62,-17.91 33.68,-17.79 -0.02,-0.12 -13.13,3.47 -36.85,7.89 -23.71,4.32 -58.11,9.13 -100.18,9.4 -42.05,0.32 -91.67,-4.1 -145.16,-15.86 -53.51,-11.63 -110.82,-30.45 -168.96,-55.65 -116.4,-50.41 -213.97,-115.71 -280.92,-168.46 -67.015,-52.92 -104.472,-92.48 -104.746,-92.12" /><path
         id="path78"
         style="fill:#efc7a0;fill-opacity:1;fill-rule:nonzero;stroke:none"
         d="m 896.199,4630.09 c 0.188,-0.08 2.574,13.57 12.817,36.72 10.254,22.98 29.644,55.2 61.879,88 31.985,32.91 76.245,66.18 130.055,93.96 53.75,27.83 116.96,50.39 185.52,63.32 68.54,12.95 135.78,14.94 196.09,8.06 60.35,-6.78 113.67,-22.76 154.95,-43.05 41.49,-20.14 70.36,-44.27 87.59,-62.57 17.32,-18.43 24.17,-30.46 24.34,-30.31 -0.1,-0.18 -10.34,9.27 -30.93,22.26 -20.55,12.97 -51.93,28.55 -92.83,39.55 -40.82,11.18 -90.89,17.85 -146.59,18.13 -55.71,0.33 -117.01,-5.46 -180.3,-17.41 -126.66,-23.68 -236.94,-68.21 -306.294,-117.23 -34.93,-24.16 -59.469,-49.12 -74.601,-68.12 -15.102,-19.06 -21.547,-31.44 -21.696,-31.31" /><path
         id="path80"
         style="fill:#efc7a0;fill-opacity:1;fill-rule:nonzero;stroke:none"
         d="m 831.887,4522.96 c 0.129,-0.04 2.562,12.57 10.144,34.72 7.875,21.93 20.961,54.05 47.293,88.66 13.078,17.29 29.66,34.87 49.832,51.25 20.223,16.28 44.129,31.12 70.884,43.04 26.53,11.99 56.66,20.98 86.64,26.85 29.92,6.15 61.1,10.63 93.19,13.35 128.35,11.06 246.45,-9.11 325.14,-41 39.5,-15.67 68.97,-33.67 87.73,-47.72 18.83,-14.04 27.54,-23.55 27.64,-23.42 -0.01,-0.45 -45.63,25.57 -124.57,39.2 -78.68,14.42 -189.33,17.04 -310.33,6.68 -30.23,-2.56 -59.68,-5.79 -87.86,-9.78 -28.19,-3.77 -53.44,-8.95 -77.48,-16.54 -47.812,-14.78 -87.128,-38.69 -116.417,-64.51 -29.504,-25.67 -49.305,-52.14 -62.422,-70.76 -12.91,-18.85 -19.313,-30.1 -19.414,-30.02" /><path
         id="path82"
         style="fill:#efc7a0;fill-opacity:1;fill-rule:nonzero;stroke:none"
         d="m 935.805,4501.02 c 0.215,-0.15 1.777,9.28 11.281,24 9.367,14.69 28.144,33.38 55.664,48.8 27.38,15.6 62.62,28.34 102.3,36.71 19.86,4.2 40.85,7.35 62.66,9.33 l 16.5,1.27 8.35,0.46 3.31,0.17 3.43,0.35 c 10.29,1.02 22.01,1.95 33.29,2.57 45.68,2.58 90.93,0.55 131.7,-8.6 40.77,-8.91 76.28,-25.55 101.48,-44.77 25.46,-19.09 40.88,-39.37 50.05,-53.58 9.13,-14.36 12.59,-22.98 12.7,-22.94 -0.06,-0.09 -7.03,6.21 -20.27,15.82 -13.25,9.51 -33,22.06 -58.77,31.71 -25.72,9.85 -57.31,16.23 -93.3,18.24 -35.98,2.15 -76.36,0.18 -119.9,-2.28 l -32.79,-1.79 -4.69,-0.23 -4.82,0 -7.78,0.05 -15.36,-0.01 c -20.31,-0.09 -39.87,-0.5 -58.42,-1.39 -37.1,-1.76 -70.23,-5.46 -97.21,-11.91 -27.007,-6.31 -47.636,-15.84 -60.593,-25.14 -13.012,-9.25 -18.699,-17.03 -18.812,-16.84" /><path
         id="path84"
         style="fill:#efc7a0;fill-opacity:1;fill-rule:nonzero;stroke:none"
         d="m 897.938,4157.29 c 0.093,0 -0.946,10.41 -0.125,29.46 1,18.97 3.781,47.01 15.871,80.45 11.914,33.13 34.675,72.06 72.785,103.44 37.681,31.58 89.521,53.51 144.611,59.94 55.24,6.69 107.61,-0.98 152.08,-14.41 44.64,-13.55 81.76,-32.97 110.49,-52.09 28.79,-19.16 49.28,-38 62.56,-51.57 13.26,-13.65 19.55,-22.02 19.61,-21.96 -0.14,-0.51 -36.13,22.19 -97.13,43.83 -30.47,10.7 -67.24,20.85 -108.15,27.12 -40.84,6.22 -85.92,8.61 -131.38,3.08 -45.45,-5.45 -86.55,-18.98 -119.73,-39.34 -33.317,-20.18 -58.43,-47.06 -76.067,-73.01 -17.722,-25.99 -28.465,-50.51 -35.39,-67.65 -6.825,-17.28 -9.961,-27.33 -10.035,-27.29" /><path
         id="path86"
         style="fill:#efc7a0;fill-opacity:1;fill-rule:nonzero;stroke:none"
         d="m 1007.19,3671.32 c -0.14,-0.04 -1.98,13.28 -8.186,36.18 -6.137,22.97 -17.594,54.92 -34.707,93.54 -8.457,19.37 -18.184,40.52 -28.125,63.96 -9.871,23.43 -20.082,49.19 -27.981,78.22 -7.804,28.94 -13.195,61.62 -11.105,96.47 1.894,34.76 11.977,70.88 29.031,103.16 4.059,7.84 9.141,16.66 14.723,24.36 5.23,7.45 10.879,14.52 16.758,21.25 11.734,13.49 24.629,25.45 38.054,36.02 26.948,21.08 56.158,36.3 85.038,46.71 57.96,20.87 114.17,22.39 158.64,14.6 44.81,-7.82 77.66,-24.9 97.69,-38.89 20.18,-14.13 28.74,-24.55 28.91,-24.34 -0.09,-0.23 -11.56,7.04 -33.69,15.11 -22.02,8.03 -55.15,15.91 -95.61,14.98 -40.27,-0.87 -87.96,-10.4 -134.28,-33.22 -23.1,-11.35 -45.74,-25.97 -66.14,-43.99 -10.14,-9.04 -19.78,-18.86 -28.52,-29.57 -4.38,-5.34 -8.581,-10.86 -12.479,-16.61 -3.762,-5.39 -6.727,-10.62 -10.156,-17.23 -13.278,-25.29 -21.434,-51.33 -24.559,-77.75 -3.211,-26.39 -1.473,-53.18 2.551,-79.26 8.406,-52.24 23.808,-101.35 32.875,-143.72 9.628,-42.4 13.368,-78.04 13.378,-102.38 0.1,-24.41 -2.27,-37.6 -2.11,-37.6" /><path
         id="path88"
         style="fill:#5a3114;fill-opacity:1;fill-rule:nonzero;stroke:none"
         d="m 3313.29,2511.53 c -0.22,0 2.65,-22.28 1.82,-63.05 -1.22,-40.54 -5.95,-100.87 -33.42,-170.91 -13.78,-34.81 -33.64,-71.68 -61.49,-106.82 -27.74,-35.15 -63.53,-68.33 -106.16,-95.72 -85.17,-55.28 -196.39,-85.51 -311.62,-84.84 -115.46,0.5 -224,29.76 -312.31,76.13 -44.18,23.22 -83.37,50.83 -115.92,81.29 -32.59,30.38 -58.44,63.63 -76.83,96.72 -18.48,33.11 -29.44,65.91 -34.96,95.08 -5.56,29.25 -5.94,54.8 -4.59,75.3 3.1,41.07 11.08,62.29 10.64,62.37 0.43,0.04 -3.43,-22.5 -0.25,-62.29 1.76,-19.78 5.74,-43.78 14.57,-70.07 8.8,-26.27 22.6,-54.73 42.7,-82.64 39.89,-56.08 105.83,-108.54 189.18,-145.29 83.15,-36.94 183.12,-59.67 288,-60.12 104.76,-0.51 204.15,22.68 282.47,66.43 39.22,21.73 73.03,48.34 100.71,77.38 27.71,29.05 49.25,60.41 65.67,91.03 32.87,61.57 46.02,118.76 53.28,157.99 6.99,39.57 8.3,62.08 8.51,62.03" /><path
         id="path90"
         style="fill:#5a3114;fill-opacity:1;fill-rule:nonzero;stroke:none"
         d="m 3431.46,2481.46 c 0.02,-0.26 13.87,32.68 50.14,76.28 17.83,21.84 40.67,46.1 65.12,71.9 24.39,25.93 50.12,53.53 72.31,84.23 2.94,4.01 5.07,7.04 7.44,10.7 l 3.2,5.4 3.45,6.07 c 4.54,8.11 8.81,16.25 12.86,24.41 7.98,16.31 15.01,32.63 21.23,48.68 12.44,32.14 22.12,62.97 30.74,89.09 16.87,52.56 30.73,84.91 30.82,84.78 -0.12,-0.11 2.51,-34.59 1.98,-90.29 -0.52,-27.87 -2.16,-61.47 -9.61,-99.1 -3.75,-18.76 -9.19,-38.46 -16.76,-58.39 -3.81,-9.94 -8.16,-19.93 -13.07,-29.84 l -3.82,-7.4 -4.43,-8.03 c -3.1,-5.09 -6.91,-10.63 -10.13,-15.04 -26.94,-37.19 -59.32,-64.94 -88.92,-87.2 -29.83,-22.19 -57.32,-39.53 -80.06,-54.59 -45.59,-29.56 -72.33,-51.68 -72.49,-51.66" /><path
         id="path92"
         style="fill:#5a3114;fill-opacity:1;fill-rule:nonzero;stroke:none"
         d="m 2441.59,2114.44 c 0.01,0.22 -19.84,-2.38 -56.13,-2.63 -36.25,-0.39 -89.03,2.15 -153.47,12.48 -64.37,10.42 -140.35,28.53 -221.8,57.91 -40.71,14.66 -82.89,32.1 -125.32,52.81 -41.59,20.21 -84.82,41.72 -128.32,65.92 -86.96,48.16 -166.96,103.55 -228.84,167.01 -30.64,31.59 -57.21,63.85 -79.41,95.68 -22.26,31.72 -40.73,62.31 -56.85,90.44 -32.01,56.39 -55.56,102.66 -72.83,134.25 l -26.94,49.06 c -0.04,-0.02 13.24,-14.97 35.63,-43.34 22.52,-28.24 53.42,-70.57 91.88,-121.64 38.68,-51.01 85.39,-109.68 147.2,-163.83 61.16,-54.13 138.11,-102.78 222.47,-149.51 42.18,-23.45 84.21,-45.52 124.94,-67.35 39.84,-21.42 79.15,-40.45 117.27,-57.41 76.22,-34.02 147.41,-59.45 208.29,-77.58 121.88,-36.39 202.45,-41.72 202.23,-42.27" /><path
         id="path94"
         style="fill:#5a3114;fill-opacity:1;fill-rule:nonzero;stroke:none"
         d="m 1527.19,3505.97 c 14.55,19.84 38.75,-100.55 34.07,-116.5 -21.31,-74.2 -88.33,-152.24 -166.29,-167.04 -99.78,-17.92 -195.26,56.06 -245.98,135.84 -77.24,107.83 13.44,851.12 38.3,840.47 -20.96,3.66 -28.18,-730.48 17.06,-806.48 37.07,-62.29 106.07,-128.34 184.11,-121.95 53.87,4.4 102.92,50.65 133,92.37 10.82,15.03 34.24,164.62 5.73,143.29 -0.07,-0.09 -0.09,-0.06 0,0" /><path
         id="path96"
         style="fill:#5a3114;fill-opacity:1;fill-rule:nonzero;stroke:none"
         d="m 1521.18,3585.36 c -0.03,-0.08 -4.26,2.01 -11.52,4.89 -7.24,2.79 -17.71,6.21 -29.06,6.81 -23.19,1.48 -44.29,-10.24 -70.89,-30.24 -26.34,-19.94 -51.54,-42.86 -69.2,-61.74 -17.78,-18.76 -27.69,-34.55 -27.79,-34.52 0.23,-0.22 -7,17.94 -2.5,48.23 4.37,29.59 20.37,71.13 59.46,101.13 19.41,14.69 43.2,24.28 66.81,25.3 23.68,1.33 45.18,-7.21 57.94,-17.93 13.09,-10.7 19.11,-22.05 22.54,-29.66 3.32,-7.77 4.13,-12.3 4.21,-12.27" /><path
         id="path98"
         style="fill:#5a3114;fill-opacity:1;fill-rule:nonzero;stroke:none"
         d="m 1360.32,3942.62 c -0.02,-0.1 -0.6,1.65 -2.42,2.9 -1.67,1.26 -5.21,1.04 -7.62,-4.8 -2.53,-5.3 -2.9,-16.04 1.35,-20.74 1.95,-2.4 4.69,-3.18 7.3,-1.54 0.65,0.46 1.28,0.94 1.9,1.68 0.61,0.67 0.95,1.23 1.78,2.56 0.93,1.73 2,4.31 2.62,6.9 1.3,5.28 1.46,11.66 0.15,16.75 -1.27,4.92 -4.18,9.12 -7.45,10.38 -3.27,1.41 -7.21,-0.08 -10.08,-4.03 -3.12,-4.24 -5.72,-11.08 -6.7,-18.37 -1.04,-7.35 -0.54,-15.25 1.5,-21.3 1.94,-5.91 5.74,-11.22 9.83,-13.01 4.15,-2.03 8.89,-1.08 13.03,2.72 2.1,1.92 3.97,4.43 5.71,7.74 1.86,3.4 3.44,7.26 4.71,11.48 5.23,16.79 4.5,38.93 -2.58,51.73 -7.14,14.3 -19.34,19.22 -30.19,11.47 -10.52,-6.96 -20.2,-28.29 -23.49,-51.24 -3.42,-23.28 -0.69,-48.15 8.11,-64.67 8.9,-17.84 22.44,-27.23 36.49,-24.76 7,1.24 14.04,5.18 20.43,11.96 3.21,3.35 6.25,7.34 9.11,11.92 2.94,4.77 5.85,10.25 8.41,15.96 10.41,22.92 16.58,52.77 16.84,82.28 0.25,29.71 -5.25,57.57 -16.36,78.94 -11.05,21.98 -25.86,36.23 -41.86,41.04 -15.97,4.91 -32.95,0.5 -48.16,-12.01 -7.62,-6.22 -14.8,-14.41 -21.35,-24.15 -6.66,-10.03 -12.94,-21.52 -18.38,-33.78 -10.94,-24.56 -18.96,-52.77 -23.72,-81.71 -9.67,-58.16 -5.69,-117.92 7.78,-162.54 6.65,-22.29 15.74,-41.86 25.45,-57.97 9.79,-16.1 20.55,-28.82 31.65,-38.24 22.22,-18.97 45.46,-24.77 65.98,-22.84 20.62,1.91 38.58,11.32 52.7,22.01 14.16,10.71 24.57,22.63 31.47,31.07 6.86,8.6 10.29,13.76 10.31,13.7 -0.02,0.05 -3.09,-5.82 -9.49,-15.94 -6.45,-9.93 -16.32,-24.2 -30.42,-38.17 -14.04,-13.91 -32.46,-27.49 -54.6,-33.58 -22.01,-6.05 -47.87,-4.38 -73.8,12.73 -25.84,17.11 -51.52,49.26 -70.06,100.73 -9.1,25.94 -15.68,56.92 -18.54,91 -2.9,34.04 -2.04,71.13 3.09,108.14 5.13,36.99 14.62,73.9 28.21,106.54 6.82,16.36 14.52,31.42 23.19,45.28 8.87,13.98 18.79,26 29.41,35.24 21.23,18.59 45.2,25.78 67.91,19.38 22.7,-6.19 44.09,-26.32 59.8,-57.65 7.81,-15.24 14.69,-34.73 18.76,-55.65 4.23,-21 6.14,-43.78 5.75,-66.62 -0.67,-45.7 -10.77,-91.63 -27.2,-126.15 -4.1,-8.68 -8.45,-16.53 -13.25,-23.87 -4.88,-7.46 -10.16,-13.95 -15.66,-19.31 -11.01,-10.79 -22.93,-16.67 -34.5,-17.85 -23.2,-2.5 -44.96,15.26 -58.34,45.19 -6.94,14.9 -11.84,34.28 -13.58,54.35 -1.81,20.15 -0.78,41.2 2.74,60.69 3.47,19.52 9.42,37.5 16.91,51.91 7.19,14.22 17.08,26.41 27.07,31.7 20.18,11.56 40.78,-1.03 51.64,-26.91 5.79,-12.96 8.96,-30.27 8.87,-47.29 0,-17.08 -2.99,-34.02 -8.04,-47.9 -2.5,-6.95 -5.52,-13.15 -8.82,-18.33 -3.35,-5.38 -7.29,-9.81 -11.29,-12.65 -8.06,-5.81 -16.5,-5.75 -23.45,-0.9 -7.04,4.96 -12.4,13.83 -15.61,26.02 -3.1,12.17 -3.08,26.49 -0.65,38.75 2.43,12.39 7.09,22.51 12.69,28.72 5.94,6.47 12.4,7.16 17.59,3.83 5.2,-3.43 9.08,-10.38 10.82,-19.52 1.64,-9.09 0.69,-19.1 -1.73,-26.7 -1.28,-3.88 -2.73,-6.93 -4.64,-9.71 -0.63,-0.87 -1.78,-2.33 -2.76,-3.12 -0.97,-0.91 -1.98,-1.46 -2.99,-1.9 -3.98,-1.61 -7.69,0.5 -10.08,4.37 -2.44,3.72 -3.69,9.59 -3.43,14.8 0.17,5.25 1.51,9.79 3.11,12.75 3.35,6.38 7.28,5.44 8.89,3.69 1.77,-1.78 2.19,-3.68 2.23,-3.58" /><path
         id="path100"
         style="fill:#efc7a0;fill-opacity:1;fill-rule:nonzero;stroke:none"
         d="m 3941.82,3880.54 c -0.26,-0.08 0.7,28.66 3.77,72.5 2.54,43.65 6.4,102.48 -9.54,155.82 -7.42,24.64 -22.65,49.97 -37.24,74.22 -14.71,24.26 -28.77,47.92 -38.03,69.53 -9.49,21.56 -13.77,40.91 -14.41,54.06 -0.75,13.22 1.07,20.19 0.92,20.18 0.12,0.07 2.58,-6.76 9.02,-17.13 6.36,-10.41 17.11,-23.73 32.15,-38.71 14.94,-15.15 34.2,-32.04 54.92,-53.85 10.33,-10.96 21,-23.25 30.99,-37.78 9.93,-14.51 19.32,-31.41 25.34,-51.27 11.27,-37.97 9.87,-74.93 3.92,-105.87 -6.01,-31.12 -16.28,-56.82 -25.86,-77.51 -19.59,-41.17 -36.15,-64.01 -35.95,-64.19" /><path
         id="path102"
         style="fill:#efc7a0;fill-opacity:1;fill-rule:nonzero;stroke:none"
         d="m 3950.23,3769.4 1.8,18.52 c 1.15,11.73 3.41,28.85 3.76,48.26 0.13,9.67 -0.48,19.72 -2.45,29.48 -2.02,9.78 -5.48,19.28 -10.45,29.26 -4.91,9.95 -11.5,20.45 -18.97,31.55 l -11.97,17.37 c -3.48,4.97 -7.57,10.23 -11.99,15.67 -17.93,21.83 -38.32,44.51 -54.84,67.58 -16.7,22.99 -30,46.66 -37.29,68.38 -7.47,21.71 -8.45,40.78 -6.92,53.12 1.49,12.43 4.36,18.56 4.21,18.58 0.15,0.19 5.56,-27.34 31.76,-55.48 12.75,-14.39 29.9,-29.64 49.84,-46.95 19.86,-17.55 42.71,-36.54 64.85,-63.3 5.48,-6.78 10.76,-13.94 15.59,-21.84 l 6.05,-10.48 c 1.89,-3.34 3.91,-7.08 5.74,-10.67 7.34,-14.54 13.51,-29.85 17.18,-45.78 3.7,-15.88 4.57,-32.25 2.66,-46.71 -1.91,-14.5 -6.07,-26.92 -10.61,-37.31 -9.29,-20.72 -19.47,-34.71 -26.47,-44.5 -7.12,-9.68 -11.5,-14.74 -11.48,-14.75" /><path
         id="path104"
         style="fill:#efc7a0;fill-opacity:1;fill-rule:nonzero;stroke:none"
         d="m 3949.08,3616.02 c -0.11,0 0.31,5.98 0.18,16.08 -0.29,10.08 -1.42,24.38 -6.35,39.36 -4.88,15.08 -13.65,30.2 -26.5,45.58 -12.75,15.48 -29.52,31.51 -47.98,50.02 -18.38,18.51 -36.55,38 -51.3,58.88 -14.8,20.68 -26,43.5 -29.47,64.65 -3.77,21.24 0.88,38.46 5.66,48.19 4.84,9.95 9,14.12 8.89,14.2 0.11,0.04 -0.16,-6.05 1.36,-15.8 1.54,-9.77 5.88,-22.54 15.15,-34.74 9.11,-12.35 22.88,-24.77 39.91,-38.76 16.96,-14.07 37,-29.71 57,-49.75 19.88,-19.99 37.77,-43.07 49.05,-68.29 11.56,-25.05 14.84,-51.92 11.45,-72.48 -3.21,-20.75 -11.13,-35.06 -16.93,-44.02 -6.01,-8.95 -10.22,-13.05 -10.12,-13.12" /><path
         id="path106"
         style="fill:#5a3114;fill-opacity:1;fill-rule:nonzero;stroke:none"
         d="m 1866.07,2640.02 c 0.16,0.44 -39.44,6.59 -99.47,31.85 -29.88,12.77 -64.72,30.98 -100.11,56.59 -35.4,25.51 -70.94,58.5 -102.6,97.16 -31.75,38.85 -56.89,79.5 -75.84,118.48 -18.97,38.98 -31.52,75.92 -39.86,107.24 l -5.49,21.79 -5.2,19.78 c -3.15,12.58 -5.14,23.86 -5.82,33.13 -1.39,18.68 2.1,28.43 1.81,28.38 0.24,0.08 1.1,-10.15 8.28,-25.88 3.55,-7.87 8.65,-17.03 15.16,-27.57 l 10.62,-17.15 c 4.02,-6.58 7.47,-12.97 11.42,-19.92 15.6,-27.06 34.77,-58.43 57.65,-91.68 22.8,-33.25 49.48,-68.68 78.65,-104.39 29.38,-35.85 58.62,-68.37 87.25,-96.37 28.59,-28.01 56.48,-51.71 80.96,-70.92 49.17,-38.25 82.9,-60.22 82.59,-60.52" /><path
         id="path108"
         style="fill:#5a3114;fill-opacity:1;fill-rule:nonzero;stroke:none"
         d="m 3860.37,3775.37 c 0.51,0.13 -29.51,24.38 -59.84,78.6 -15.02,26.96 -29.75,61.12 -40.33,100.79 -10.63,39.61 -17.15,84.68 -16.68,132.09 0.42,47.41 7.75,92.43 19.23,131.85 11.45,39.48 27.02,73.35 42.84,99.88 31.88,53.4 62.59,76.68 62.07,76.86 0.43,-0.11 -16.8,-34 -31.47,-89.84 -14.94,-55.81 -25.64,-133.53 -26.17,-219.35 -1,-85.8 8.11,-163.89 21.46,-220.15 13.11,-56.29 29.26,-90.63 28.89,-90.73" /><path
         id="path110"
         style="fill:#5a3114;fill-opacity:1;fill-rule:nonzero;stroke:none"
         d="m 3700.47,2915.09 c -0.55,0.17 24.57,41.78 49.49,112.5 12.42,35.39 24.53,78.04 34.19,125.95 9.74,47.93 17.13,101.08 21.89,157.29 9.53,112.38 6.74,215.9 0.57,291.38 -6.18,75.45 -14.67,122.89 -14.32,122.93 -0.36,-0.08 23.94,-41.9 46.97,-116.65 22.93,-74.31 43.22,-182.8 33.03,-303.25 -5.04,-60.04 -17.31,-116.7 -33.95,-166.32 -16.62,-49.72 -37.67,-92.25 -58.43,-125.73 -20.77,-33.53 -40.93,-58.13 -55.68,-74.15 -14.78,-16.04 -23.82,-23.89 -23.76,-23.95" /><path
         id="path112"
         style="fill:#eea447;fill-opacity:1;fill-rule:nonzero;stroke:none"
         d="m 1140.66,5335.71 c 0,0 1094.91,830.72 2311.8,562.15 1216.88,-268.59 1813.63,-644.81 1421.62,-991.75 -392.03,-346.93 -1377.56,-416.98 -1602.5,-407.49 -224.93,9.49 -2228.28,313.44 -2130.92,837.09" /><path
         id="path114"
         style="fill:#efc7a0;fill-opacity:1;fill-rule:nonzero;stroke:none"
         d="m 1050.26,5328.85 c 0.14,0.12 13.47,-17.7 41.79,-49.05 28.38,-31.19 72.24,-75.62 134.69,-125.68 62.33,-50.12 143.3,-105.57 242.76,-160.31 99.37,-54.82 217.05,-108.95 350.76,-159.28 267.39,-100.87 598.51,-186.6 971.41,-248.12 186.39,-30.43 383.43,-53.85 588.15,-61.43 204.63,-7.54 417.18,0.85 630.67,36.28 106.66,17.73 210.86,41.9 311.41,72.58 49.94,14.7 97.24,33.48 143.86,55.17 46.41,21.64 91.31,45.88 134.32,72.2 85.76,52.77 165.17,113.65 228.59,184.67 31.46,35.51 58.78,73.75 77.74,114.43 19.02,40.56 29.13,83.69 26.09,125.55 -2.71,41.89 -18.65,81.88 -42.7,116.91 -24.07,35.11 -55.35,65.59 -89.21,92.19 -69.61,53.22 -143.32,99.47 -216.23,139.63 -146.45,80.39 -292.37,138.05 -427.5,184.2 -135.37,45.94 -260.45,80.22 -370.75,108.57 -110.37,28.22 -206.05,50.33 -284.25,68.37 l -243.11,55.85 245.22,-45.67 c 78.91,-15.02 175.44,-33.59 287.01,-58.08 111.52,-24.65 238.22,-55.02 376.13,-97.4 137.68,-42.63 287.07,-97.05 438.69,-175.76 75.8,-39.58 151.53,-84.66 225.94,-139.24 37.28,-28.16 73.01,-61.22 102.1,-101.96 28.99,-40.45 50.34,-90.13 54.62,-143.24 4.72,-53.06 -7.48,-106.62 -28.97,-154.15 -21.5,-47.84 -51.58,-90.76 -85.41,-129.97 -68.2,-78.24 -151.15,-142.85 -240.53,-199.02 -44.83,-27.98 -91.58,-53.69 -140.21,-76.77 -48.43,-22.98 -99.75,-43.66 -152.11,-59.32 -103.36,-32.06 -210.44,-57.15 -319.84,-75.34 -219,-36.35 -436.21,-43.77 -644.18,-34.27 -208.14,9.56 -407.38,35.91 -595.05,69.73 -375.11,68.23 -707.03,162.81 -974.07,272.46 -133.51,54.73 -250.63,113.21 -349.06,171.99 -98.52,58.67 -178.15,117.67 -238.95,170.57 -60.92,52.85 -103.1,99.31 -130.2,131.79 -27.01,32.61 -39.48,51.04 -39.62,50.92" /><path
         id="path116"
         style="fill:#efc7a0;fill-opacity:1;fill-rule:nonzero;stroke:none"
         d="m 1449.51,5380.78 176.5,-82.57 c 113.89,-52.56 278.7,-128.73 485.81,-213.76 207.15,-84.47 457.15,-178.08 742.73,-251.11 71.36,-18.19 144.95,-34.98 220.51,-49.79 75.69,-14.81 152.95,-27.83 232.21,-37.22 158.59,-18.86 324.49,-28.05 493.3,-22.12 84.4,3.11 167.54,10.21 248.3,22.79 80.7,12.61 159.18,30.67 232.72,56.96 73.41,26.23 142.04,61.02 198.9,107.17 28.36,23.07 53.65,48.88 74.68,77.29 21.02,28.34 38.31,59.28 49.75,91.04 11.48,31.79 16.78,64.78 15.24,97.24 -1.47,32.47 -9.79,64.26 -22.84,94.01 -26.3,59.73 -69.66,110.71 -116.09,154.44 -46.78,43.81 -97.52,80.96 -148.07,113.92 -50.66,32.92 -101.38,61.6 -150.74,87.33 -98.83,51.33 -191.95,91.08 -274.57,123.58 -82.73,32.43 -155.24,57.35 -214.88,76.56 -119.32,38.32 -187.19,53.49 -187.12,53.65 -0.07,-0.17 68.6,-11.24 190.07,-43.69 60.7,-16.26 134.57,-37.81 219.16,-66.76 84.54,-29.06 179.98,-65.22 282.14,-113.57 51.05,-24.25 103.78,-51.61 156.92,-83.67 53.05,-32.14 106.77,-68.83 157.68,-113.74 50.47,-44.96 99.53,-98.42 132.03,-166.94 16.01,-34.12 27.17,-72.17 29.9,-111.94 2.87,-39.72 -2.91,-80.56 -15.81,-118.75 -26,-76.31 -75.95,-143.72 -138.98,-196.5 -63.06,-52.93 -137.57,-91.56 -215.56,-120.48 -78.21,-28.93 -160.4,-48.48 -244.19,-62.09 -83.89,-13.56 -169.56,-21.12 -256.2,-24.3 -173.28,-6.08 -342.13,4.37 -503.73,25.42 -80.92,10.53 -159.9,24.97 -236.32,41.23 -76.55,16.31 -150.9,34.75 -222.84,54.7 -287.86,80.13 -536.71,182.33 -741.46,274.81 -204.71,93.05 -366.04,176.78 -477.25,234.97 -111.08,58.47 -171.86,91.97 -171.9,91.89" /><path
         id="path118"
         style="fill:#efc7a0;fill-opacity:1;fill-rule:nonzero;stroke:none"
         d="m 1705.39,5443.45 c -0.1,-0.21 41.99,0.42 116.53,-13.45 74.54,-13.47 180.62,-41.83 308.97,-83.95 128.47,-41.87 279.39,-96.95 446.56,-157.79 167.23,-60.59 350.77,-127.38 545.96,-186.9 195.05,-59.14 384.3,-105.07 558.56,-118.39 86.96,-6.6 170,-4.63 245.6,8.67 75.63,13.07 143.39,38.27 198.47,72.86 55.27,34.42 97.42,77.53 128.26,119.8 30.97,42.38 51.4,83.55 65.94,117.94 14.53,34.49 23.24,62.43 28.88,81.4 5.64,19.01 8.09,29.14 8.15,29.13 -0.06,0.01 -1.51,-10.31 -5.35,-29.82 -3.91,-19.48 -10.17,-48.22 -21.94,-84.35 -11.84,-36.02 -29.3,-79.67 -58.24,-126.1 -28.85,-46.25 -70.25,-95.07 -127.19,-135.63 -56.68,-40.72 -128.25,-71.96 -207.95,-89.8 -79.76,-18.11 -167.15,-23.81 -257.87,-20.12 -181.85,7.56 -376.79,50.82 -574.65,110.77 -198.05,60.42 -381.33,131.6 -546.71,198.15 -165.33,66.81 -312.79,129.46 -437.77,178.91 -124.85,49.69 -227.44,85.67 -299.98,105.09 -72.46,19.81 -114.32,23.38 -114.23,23.58" /><path
         id="path120"
         style="fill:#efc7a0;fill-opacity:1;fill-rule:nonzero;stroke:none"
         d="m 1628.54,5585.82 c 0.12,-0.33 33.23,15.54 96.48,36.12 63.13,20.26 157.64,44.34 277.68,50.54 59.88,3.16 125.87,1.75 196.12,-5.58 70.26,-7.25 144.69,-20.48 221.62,-39.08 154.13,-36.91 317.27,-96.09 486.05,-158.85 84.47,-31.29 166.66,-61.67 246.61,-88.59 39.97,-13.48 79.36,-26.13 118.13,-37.7 38.68,-11.8 76.9,-21.61 114.97,-32.36 149.64,-42.77 285.54,-75.54 401.57,-84.01 57.74,-4.17 110.53,-2.25 154.22,9.48 21.76,5.83 41.13,14.23 56.85,25.05 15.77,10.78 27.7,23.99 35.86,37.58 16.35,27.5 18.84,54 19.87,70.99 0.78,17.31 -0.33,26.49 -0.14,26.48 -0.19,-0.02 1.97,-8.95 3.01,-26.47 0.46,-8.76 0.57,-19.69 -1.05,-32.59 -1.63,-12.85 -5.02,-27.8 -12.56,-43.34 -7.4,-15.54 -19.26,-31.45 -35.66,-44.94 -16.36,-13.52 -36.84,-24.58 -59.83,-32.84 -46.18,-16.55 -101.58,-22.72 -161.8,-22.63 -120.76,0.31 -262.09,25.91 -414.43,62.93 -37.55,9 -77.29,17.73 -117.28,28.56 -39.97,10.62 -80.49,22.45 -121.41,35.29 -81.88,25.63 -165.32,55.37 -250.02,86.75 -169.3,62.97 -328.49,125.01 -477.19,166.94 -74.26,21.11 -145.72,37.43 -213.33,48.29 -67.61,10.91 -131.29,16.36 -189.61,17.41 -116.78,2.19 -211.29,-13.22 -275.54,-27.34 -64.34,-14.39 -99.12,-26.43 -99.19,-26.09" /><path
         id="path122"
         style="fill:#efc7a0;fill-opacity:1;fill-rule:nonzero;stroke:none"
         d="m 3232.33,5918.3 c -0.01,-0.27 -32.19,4.57 -90.55,8.13 -58.32,3.56 -142.85,4.8 -246.45,-3.9 -103.63,-8.39 -225.95,-27.24 -361.03,-54.3 -67.58,-13.39 -138.39,-28.6 -212.07,-44.26 l -112.61,-23.52 -57.77,-11.5 c -9.78,-1.82 -19.05,-3.82 -28.37,-5.8 -9.38,-2.11 -18.85,-4.17 -28.27,-6.55 -151.21,-37.08 -289.44,-99.03 -416.01,-154.24 l -92.75,-40.58 -44.99,-19.28 -11.37,-4.8 -11.35,-4.11 -21.72,-7.98 c -56.59,-21.4 -107.64,-45.45 -152.51,-70.78 -89.82,-50.72 -154.21,-105.99 -196.29,-146.24 -42.07,-40.5 -62.97,-65.54 -63.21,-65.29 0.28,-0.21 17.73,27.23 55.65,72.41 37.91,44.87 97.75,107.6 186.36,167.4 44.19,29.82 95.36,58.6 152.55,84.47 l 21.47,9.45 10.59,4.56 10.25,5.09 43.02,21.4 90.58,45.13 c 62.22,30.73 128.17,62.52 198.62,92.03 70.41,29.47 145.57,56.53 225.38,75.97 9.97,2.5 19.96,4.66 29.96,6.89 10.1,2.11 20.2,4.24 29.85,5.97 l 57.63,10.91 112.86,21.39 c 74.13,13.9 145.98,26.68 214.84,37.13 137.68,21.18 263.53,32.1 369.29,32.25 105.81,0.48 191.02,-9.19 249.04,-19.01 58.07,-9.8 89.34,-18.7 89.38,-18.44" /><path
         id="path124"
         style="fill:#5a3114;fill-opacity:1;fill-rule:nonzero;stroke:none"
         d="m 2719.71,3818.97 c -0.45,0.23 -5.67,-17.72 -28.62,-40.03 -11.6,-10.91 -28.61,-22.8 -52.54,-29.93 -23.7,-7.27 -53.89,-8.33 -82.42,-2.19 -28.64,6.06 -52.63,17.09 -72.42,28.25 -19.82,11.27 -35.82,22.95 -48.84,33.14 -25.83,20.5 -40.34,35.31 -40.42,35.31 -0.05,0.05 21.85,-2.68 54.67,-10.89 32.77,-7.74 76.17,-21.94 117.18,-30.75 20.58,-4.28 38.81,-6.43 56.37,-6.01 17.5,0.38 34.29,3.43 48.75,7.19 28.96,7.83 48.23,16.28 48.29,15.91" /><path
         id="path126"
         style="fill:#5a3114;fill-opacity:1;fill-rule:nonzero;stroke:none"
         d="m 3438.14,3763.29 c -0.05,0.03 -1.23,-3.83 -4.66,-10.18 -3.47,-6.29 -9.43,-15.25 -19.71,-24.07 -10.18,-8.81 -25,-17.18 -42.7,-21.44 -17.63,-4.34 -37.54,-4.59 -56.42,-0.65 -38.03,8.17 -64.34,28.17 -82.42,43.34 -17.91,15.5 -28.44,27.52 -28.52,27.53 -0.06,0.04 15.87,3.75 39.95,3.69 24.07,0.19 55.36,-3.37 84.33,-9.42 28.96,-6.15 51.67,-12.32 72.95,-12.38 20.91,-0.23 37.26,3.9 37.2,3.58" /><path
         id="path128"
         style="fill:#5a3114;fill-opacity:1;fill-rule:nonzero;stroke:none"
         d="m 3088.8,3336.86 c -0.26,0.02 3.79,40.28 -3.07,102.42 -3.24,31.15 -8.82,67.86 -15.49,108.89 -6.51,41.08 -14.26,86.41 -18.63,135.84 -3.9,49.13 -5.17,94.97 -5.29,137.34 -0.03,21.11 0.27,41.19 0.79,60.01 l 0.23,6.78 c 0.27,0.22 0.04,3.15 -0.05,5.25 l -0.66,13.29 c -0.41,8.81 -0.73,17.45 -0.78,25.77 -0.52,33.33 5.02,61.3 12.99,78.41 7.88,17.28 15.65,24.13 15.39,24.25 0.24,-0.01 -3.98,-9.56 -5.32,-26.84 -1.46,-17.34 1.57,-41.74 9.91,-71.49 l 6.74,-23.66 3.67,-12.94 c 0.59,-2.38 1.27,-3.92 1.94,-8.29 l 1.27,-7.1 c 3.36,-18.52 6.69,-38.33 9.84,-59.2 6.29,-41.6 11.8,-88.1 15.57,-135.87 4.18,-47.37 7.87,-93.94 8.3,-136.81 0.59,-42.87 -2.05,-82.05 -7.19,-114.58 -10,-65.58 -30.55,-101.67 -30.16,-101.47" /><path
         id="path130"
         style="fill:#5a3114;fill-opacity:1;fill-rule:nonzero;stroke:none"
         d="m 2810.79,3465.87 c -0.06,0.01 -5.48,29.81 -11.05,77.05 -5.51,47.3 -11.61,112.05 -10.14,183.82 0.2,8.95 0.51,17.77 0.94,27.02 0.23,4.55 0.44,9.05 0.95,13.55 l 1.15,12.23 4.23,47.78 c 2.99,31.11 7.29,59.97 13.03,83.88 5.65,23.96 12.74,42.87 18.53,55.33 5.86,12.49 10.12,18.76 10.06,18.79 0.04,-0.1 -1.18,-30.23 4.59,-76.25 2.65,-23.14 6.65,-50.44 9.9,-81.64 1.58,-15.61 2.92,-32.23 3.26,-50 l 0.03,-13.4 c -0.14,-4.11 -0.04,-8.29 0,-12.49 0.07,-8.27 0.01,-17.21 -0.18,-26.25 -1.48,-72.04 -12.02,-137.47 -23.16,-184.28 -11.06,-46.88 -22.21,-75.13 -22.14,-75.14" /><path
         id="path132"
         style="fill:#5a3114;fill-opacity:1;fill-rule:nonzero;stroke:none"
         d="m 3060.97,3325.17 c -0.37,-0.03 -0.3,-25.39 -11.98,-65.21 -6.25,-19.74 -15.44,-43.63 -34.98,-67.44 -9.74,-11.79 -22.66,-23.38 -39.15,-32.08 -8.26,-4.28 -17.37,-7.75 -26.94,-9.96 -9.36,-2.25 -20.13,-3.17 -28.54,-3.11 -18.23,-0.06 -36.86,3.41 -53.51,10.48 -16.69,6.96 -31.07,17.37 -42.08,28.89 -22.18,23.3 -31.7,48.94 -36.71,69.53 -4.88,20.88 -5.26,37.7 -5.05,49.19 0.28,11.52 1.28,17.82 1.25,17.82 l 8.82,-15.22 c 5.69,-9.58 13.98,-23.26 25.24,-37.95 11.19,-14.63 25.71,-30.22 42.86,-40.7 17.21,-10.56 36.08,-15.58 59.12,-15.51 6.48,-0.01 10.45,0.24 15.28,0.98 4.61,0.71 9.13,1.82 13.63,3.36 8.96,3.2 18.01,8.13 26.57,14.42 17.27,12.54 32.46,28.95 45,43.22 24.91,29.15 40.98,49.58 41.17,49.29" /><path
         id="path134"
         style="fill:#5a3114;fill-opacity:1;fill-rule:nonzero;stroke:none"
         d="m 2790.78,3266.36 c 0.14,0.35 -11.03,-12.82 -37.14,-18.95 -12.81,-2.96 -28.84,-4.08 -46.46,-0.54 -17.55,3.73 -36.73,11.32 -53.74,29.06 -7.71,8.32 -14.76,18.41 -18.96,31.7 -4.34,13.03 -3.87,29.03 0.75,40.4 4.41,11.6 10.94,19.21 16.95,24.9 6.09,5.7 12.04,9.58 17.53,12.75 21.96,11.98 37.4,14.57 37.44,14.87 0.29,0.06 -4.71,-15.72 -12.37,-36.72 -3.52,-10.04 -7.19,-22.9 -4.92,-28.62 1,-2.82 2.5,-2.9 4.01,-4.69 1.52,-1.64 4.36,-5.19 8.14,-9.17 6.36,-6.88 16.13,-15.26 25.68,-22.26 9.71,-7.15 19.78,-13.54 29,-18.56 18.34,-10.24 34.09,-14.08 34.09,-14.17" /><path
         id="path136"
         style="fill:#5a3114;fill-opacity:1;fill-rule:nonzero;stroke:none"
         d="m 3035.21,3243.37 c -0.11,0.17 15.09,5.43 34.27,14.37 9.52,4.54 20,10.1 29.38,16.38 9.41,6.23 17.29,13.42 21.62,18.92 2.24,2.79 3.84,4.92 5.42,7.54 1.52,2.63 3.03,6.02 3.82,10.4 1.78,8.73 0.89,20.27 -0.81,30.42 -3.66,20.62 -8.38,36.25 -8.05,36.2 -0.14,-0.35 15.57,-2.65 35.97,-18.12 9.89,-7.94 21.53,-19.64 28.22,-39.21 3.29,-9.68 4.81,-21.64 2.82,-34.17 -1.91,-12.53 -7.66,-25.21 -15.92,-35.17 -16.85,-20.16 -38.34,-27.69 -55.91,-30.23 -17.91,-2.41 -33.27,0.16 -45.32,3.83 -24.15,7.67 -35.39,19.1 -35.51,18.84" /><path
         id="path138"
         style="fill:#5a3114;fill-opacity:1;fill-rule:nonzero;stroke:none"
         d="m 2699.55,4167.59 c -0.14,-0.2 16.87,-8.94 44.19,-30.59 13.55,-10.93 29.59,-25.3 45.92,-44.5 16.26,-19.21 33.02,-43.34 45.46,-73.86 12.15,-30.29 20.55,-67.91 12.56,-109.39 -4.07,-20.51 -12.68,-41.78 -27.04,-60.39 -14.22,-18.67 -34.12,-34.14 -56.56,-43.99 -22.45,-9.99 -47.03,-14.61 -71.34,-15.23 -24.38,-0.65 -48.61,2.57 -72.16,8.26 -23.57,5.69 -46.5,13.91 -68.72,23.81 -22.71,10.19 -42.57,21.19 -63.44,31.97 -82.98,43.74 -160.12,88.23 -230.03,128.79 -69.86,40.62 -132.6,77.29 -185.78,107.44 -106.25,60.41 -173.94,95.51 -173.8,95.79 -0.14,-0.28 73.7,-19.91 188.23,-65.83 57.24,-22.88 124.46,-52.51 197.64,-87.83 73.23,-35.27 152.38,-76.12 234.75,-119.54 20.63,-10.68 41.15,-22.2 59.8,-31 19.15,-9.04 38.39,-16.59 57.46,-22.04 37.99,-10.99 75.97,-13.34 106.28,-2.6 30.4,10.29 51.67,34.33 60.57,63.33 9.18,28.97 7.03,60.52 0.03,87.94 -7.05,27.66 -18.77,51.87 -30.94,72.03 -12.25,20.2 -25.05,36.51 -36.1,49.35 -22.38,25.59 -37.17,37.94 -36.98,38.08" /><path
         id="path140"
         style="fill:#5a3114;fill-opacity:1;fill-rule:nonzero;stroke:none"
         d="m 3650.56,3957.07 c 0.03,-0.09 -11.34,-0.5 -30.27,-5.94 -18.98,-5.32 -45.27,-15.91 -76.87,-31.29 -31.64,-15.29 -68.62,-35.11 -110.27,-56.77 -41.7,-21.56 -87.93,-45.19 -139.53,-66.07 -25.87,-10.35 -51.84,-19.5 -78.62,-26.14 -13.42,-3.28 -27.03,-5.95 -41.24,-7.33 -14.23,-1.28 -29.11,-1.65 -45.56,2.18 -8.16,1.97 -16.85,5.2 -24.96,10.63 -8.1,5.37 -15.2,13.11 -19.67,21.32 -8.99,16.75 -9.12,32.17 -8.26,44.79 2.46,25.42 10.32,44.64 17.66,61.93 15.31,34.09 31.45,58.56 42.66,75.48 11.34,16.8 18.25,25.62 18.21,25.64 l -8.82,-30.04 c -5.45,-19.24 -13.85,-47.19 -20.31,-81.04 -3.03,-16.67 -5.72,-35.59 -3.93,-52.2 0.81,-8.16 3.43,-15.2 6.2,-17.66 1.38,-1.32 2.53,-1.8 4.22,-2.39 1.71,-0.56 4.23,-1.12 7.61,-1.37 6.78,-0.54 16.37,0.4 26.52,2.5 10.2,2.09 21.17,5.19 32.44,8.83 22.58,7.32 46.44,16.7 71.04,26.58 49.26,19.9 97.18,39.7 141.84,55.77 44.66,16.17 86.15,28.87 121.92,36.79 35.75,8.03 65.81,10.96 86.48,10.18 20.74,-0.66 31.54,-4.51 31.51,-4.38" /><path
         id="path142"
         style="fill:#5a3114;fill-opacity:1;fill-rule:nonzero;stroke:none"
         d="m 2694.68,3737.86 c -8.28,-20.24 -31.4,-29.94 -51.64,-21.67 -20.23,8.26 -29.93,31.38 -21.66,51.63 8.27,20.24 31.38,29.93 51.62,21.66 20.24,-8.27 29.94,-31.38 21.68,-51.62" /><path
         id="path144"
         style="fill:#5a3114;fill-opacity:1;fill-rule:nonzero;stroke:none"
         d="m 3416.86,3693.95 c -9.56,-23.43 -36.31,-34.66 -59.75,-25.08 -23.45,9.58 -34.67,36.34 -25.11,59.77 9.58,23.44 36.34,34.67 59.79,25.09 23.42,-9.58 34.66,-36.34 25.07,-59.78" /><path
         id="path146"
         style="fill:#5a3114;fill-opacity:1;fill-rule:nonzero;stroke:none"
         d="m 2292.64,2691.14 c 0.26,-0.02 -1.39,46.55 8.2,121.17 9.6,74.32 31.71,177.52 80.85,282.68 12.29,26.21 25.53,51.23 39.5,74.74 13.62,23.25 29.5,46.75 45.81,66.14 32.6,39.49 66.1,69.64 94.5,94 28.15,24.21 52.93,43.59 72.01,53.53 18.99,10.29 30.81,12.02 30.68,12.17 0.11,-0.12 -10.22,-5.91 -24.46,-20.49 -14.53,-14.42 -31.78,-37.98 -53.97,-67.94 -22.02,-29.67 -48.35,-64.5 -73.32,-104.2 -12.78,-19.96 -23.72,-40.37 -35.47,-63.86 -11.71,-23.15 -23.34,-47.32 -35.02,-72.21 -46.57,-99.6 -83.34,-193.26 -108.82,-262.48 -25.4,-69.18 -40.25,-113.35 -40.49,-113.25" /><path
         id="path148"
         style="fill:#5a3114;fill-opacity:1;fill-rule:nonzero;stroke:none"
         d="m 3338.09,2716.49 c -0.19,-0.05 -8.1,35.36 -20.24,90.98 -12.35,55.56 -28.71,131.35 -52.65,210.44 l -9.45,29.56 c -3.13,10.24 -6,18.97 -9.23,28.32 -6.31,18.36 -13.06,36.17 -19.75,53.36 -13.41,34.34 -26.13,66.19 -35.52,93.66 -19.3,54.96 -24.12,91.33 -24.14,91.17 0.1,-0.05 20.23,-29.83 53.71,-75.95 16.55,-23.27 36.5,-50.95 56.35,-84.21 9.89,-16.64 19.67,-34.78 28.49,-54.51 4.38,-9.71 8.76,-20.54 12.24,-30.39 3.73,-9.81 7.57,-20.67 10.89,-31.55 26.42,-87.69 26.29,-169.75 22.25,-227.58 -4.42,-58.11 -13.15,-93.28 -12.95,-93.3" /><path
         id="path150"
         style="fill:#e19257;fill-opacity:1;fill-rule:nonzero;stroke:none"
         d="m 1936.62,628.648 c 0,0 375.89,736.892 935.76,1070.702 559.86,333.8 901.58,601.61 972.8,500.44 71.23,-101.17 -69.97,-227.17 -185.71,-316.71 -115.72,-89.54 -331.96,-240 -331.96,-240 0,0 324.71,55.25 353.82,-47.57 29.08,-102.8 -157.58,-196.23 -157.58,-196.23 0,0 134.41,10.63 163.52,-92.18 29.12,-102.79 -157.58,-145.68 -157.58,-145.68 0,0 115.19,44.68 121.89,-32.71 6.7,-77.4 -124.86,-157.581 -124.86,-157.581 0,0 94.24,-32.949 98.11,-115.949 3.87,-83 -314.95,-336.168 -566.82,-353.391 -251.87,-17.207 -348.07,57.18 -586.78,59.043 -149.12,1.148 -368.68,-169.48 -368.68,-169.48 l -165.93,237.296" /><path
         id="path152"
         style="fill:#5a3114;fill-opacity:1;fill-rule:nonzero;stroke:none"
         d="m 3384.26,1666.22 c -0.1,0.05 27.11,26.89 80.61,70.39 l 97.3,79.04 c 37.67,30.94 80.39,66.37 124.88,107.88 22.18,20.76 44.81,43.07 66.78,67.43 21.89,24.32 43.3,50.73 61.23,79.76 8.92,14.5 16.89,29.68 23.07,45.36 3.08,7.86 5.68,15.8 7.69,23.83 2.05,8.03 3.22,15.94 4.3,24.92 0.88,8.1 1.06,16.02 0.06,22.43 -0.92,6.54 -3.12,10.73 -5,12.53 -1.86,1.74 -4.62,3.34 -10.57,4.26 -5.8,0.85 -13.55,0.61 -21.74,-0.65 -16.54,-2.47 -34.76,-8.32 -52.87,-15.36 -18.16,-7.12 -36.53,-15.6 -54.9,-24.85 -36.74,-18.53 -73.63,-40.04 -110.61,-62.98 -36.99,-22.98 -74.08,-47.54 -111.36,-73.17 l -57.35,-39.73 c -19.75,-12.83 -39.67,-25.32 -59.86,-37.7 -80.74,-49.38 -160.81,-94.17 -237.72,-137.68 -76.95,-43.39 -150.82,-85.32 -220.03,-126.94 -138.53,-82.94 -257.99,-165.71 -349.3,-246.13 -91.79,-79.91 -154.43,-157.12 -191.84,-214.32 -37.48,-57.28 -52.32,-92.77 -52.7,-92.52 0.42,-0.21 11.23,36.61 43.78,97.85 32.44,61.06 89.72,145.22 178,233.23 87.7,88.46 205.14,180.03 342.23,269.42 68.48,44.84 141.77,89.42 218.01,134.52 76.19,45.16 155.5,90.74 234.82,139.28 19.8,12.13 39.44,24.37 58.59,36.66 l 56.41,38.44 c 38.28,25.72 76.68,50.27 115.31,73.19 38.66,22.88 77.48,44.27 117.31,62.91 19.92,9.3 40.12,17.88 60.98,25.24 20.93,7.25 42.32,13.6 66.14,16.33 11.92,1.24 24.62,1.64 38.61,-1.01 13.71,-2.53 30.11,-9.76 41.26,-23.18 11.13,-13.31 15.18,-28.74 16.42,-41.48 1.31,-13.04 0.19,-24.64 -1.5,-35.6 -1.66,-10.07 -3.81,-21 -6.99,-31.25 -3.1,-10.24 -6.87,-20.04 -11.11,-29.37 -8.47,-18.71 -18.64,-35.69 -29.53,-51.39 -21.84,-31.41 -46.31,-58.07 -70.78,-82.18 -24.54,-24.06 -49.29,-45.5 -73.38,-65.16 -48.27,-39.26 -93.87,-71.64 -134.07,-99.61 -40.27,-27.89 -75.32,-51.21 -103.73,-70.57 -57.06,-38.36 -86.91,-61.97 -86.85,-62.07" /><path
         id="path154"
         style="fill:#5a3114;fill-opacity:1;fill-rule:nonzero;stroke:none"
         d="m 3489.41,1394.52 22.68,16.33 c 14.52,10.39 35.78,25.08 59.79,44.44 11.92,9.7 24.5,20.64 36.36,33 11.82,12.36 22.95,26.29 30.45,41.2 7.52,14.98 10.9,30.24 9.2,45.89 -0.82,7.83 -2.89,16.1 -6.07,24.32 -2.97,7.67 -7.33,15.45 -12.25,21.7 -9.88,12.59 -23.26,20.95 -40.36,26.25 -16.96,5.24 -36.42,7.07 -55.46,7.38 -38.44,0.35 -75.43,-4.61 -106.53,-8.63 -31.21,-4.2 -57.01,-7.84 -74.93,-9.59 -17.97,-1.86 -27.99,-1.93 -27.99,-1.95 l 25.16,11.95 c 16.14,7.72 39.25,19.23 69.06,31.7 29.9,12.17 66.35,26.01 111.45,32.52 22.57,2.94 47.59,4.15 74.89,-1.7 13.58,-3.01 27.68,-7.89 41.14,-15.73 13.45,-7.69 25.94,-18.49 35.86,-31.1 9.92,-12.76 16.97,-26.26 21.91,-40.73 4.69,-13.89 7.45,-28.56 7.69,-43.44 0.32,-14.85 -2.2,-29.67 -6.75,-43.03 -4.51,-13.41 -11.14,-25.25 -18.44,-35.56 -14.84,-20.56 -32.31,-34.97 -48.97,-46.41 -16.77,-11.37 -33.09,-19.71 -48.16,-26.45 -30.16,-13.34 -55.27,-20.56 -72.62,-25.44 -17.37,-4.75 -27.11,-6.9 -27.11,-6.92" /><path
         id="path156"
         style="fill:#5a3114;fill-opacity:1;fill-rule:nonzero;stroke:none"
         d="m 3550.38,1177.28 c -0.15,0.13 21.34,14.33 49.48,39.6 13.87,12.62 29.71,28.27 41.88,45.84 6.02,8.71 10.86,17.9 13.22,26.27 2.38,8.5 2.51,15.46 0.81,23.29 -0.42,1.97 -0.98,3.98 -1.75,6.05 -0.19,0.52 -0.32,1.05 -0.54,1.56 l -0.33,0.8 0.02,0.03 c -0.04,0.15 0.21,-0.3 0,0.17 l -0.77,1.44 c -2.14,3.8 -4.64,7.41 -7.65,10.85 -5.96,6.89 -14,13.24 -23.09,18.76 -18.3,11.09 -39.39,19.01 -57.37,25.51 l -44.16,15.52 c -10.62,3.85 -16.51,6.34 -16.5,6.34 0,0 6.14,1.66 17.22,4.01 11.12,2.31 27.15,5.52 47.65,7.12 20.5,1.37 45.72,1.91 75.08,-6.86 14.55,-4.49 30.36,-11.75 44.83,-24.1 7.2,-6.13 13.91,-13.57 19.53,-21.97 l 2.05,-3.2 c 0.67,-1.14 1.96,-3.07 2.63,-4.59 l 1.91,-4.2 c 0.51,-1.14 0.96,-2.36 1.45,-3.54 1.91,-4.76 3.51,-9.84 4.68,-15.11 5.03,-21.2 1.61,-44.36 -6.7,-61.72 -8.18,-17.65 -19.7,-30.57 -31.13,-40.65 -23.22,-20 -46.79,-29.96 -66.64,-36.57 -40.03,-12.71 -65.94,-10.39 -65.81,-10.65" /><path
         id="path158"
         style="fill:#5a3114;fill-opacity:1;fill-rule:nonzero;stroke:none"
         d="m 3474.91,965.059 c -0.01,0.05 6.75,1.242 17.82,5.281 11.1,4.031 26.61,10.781 44.72,20.281 18,9.489 38.92,21.589 59.09,36.399 9.98,7.4 19.83,15.53 27.88,24.1 8.08,8.52 13.98,17.56 16,24.51 1.12,3.52 1.45,6.45 1.34,9.79 -0.18,1.84 -0.12,3.09 -0.82,5.68 -0.65,2.78 -1.17,4.81 -1.8,6.65 -2.48,7.51 -7.19,14.31 -14.82,20.61 -15.41,12.65 -38.3,20.3 -57.42,25.03 -39.19,9.28 -67.23,9.71 -67.06,10.06 0.04,-0.06 5.79,3.61 17.14,8.57 11.38,4.86 28.39,11.1 51.01,14.6 11.32,1.67 24.06,2.69 38.24,1.73 14.13,-1.03 29.93,-3.78 46.47,-11.61 16.34,-7.55 33.82,-21.83 44.06,-41.96 2.62,-5.01 4.66,-10.17 6.23,-14.79 1.74,-4.68 3.26,-11.09 4.1,-16.99 1.7,-12.19 0.61,-25.39 -3.18,-37.18 -7.7,-23.9 -22.55,-39.93 -36.62,-51.71 -14.36,-11.821 -29.13,-19.797 -43.33,-26.028 -28.5,-12.273 -55.05,-17.293 -77.42,-19.461 -22.36,-2.051 -40.62,-0.769 -52.97,1.371 -12.41,2.129 -18.68,5.137 -18.66,5.067" /><path
         id="path160"
         style="fill:#5a3114;fill-opacity:1;fill-rule:nonzero;stroke:none"
         d="m 1914.57,138.762 c 0.59,-0.36 6.29,31.347 35.23,81.269 14.52,24.797 35.3,53.547 62.85,83.828 27.45,30.352 61.63,62.051 100.09,95.411 19.85,17.32 40.9,33.222 63.14,50.332 22.32,16.878 46.09,34 71.74,50.57 25.63,16.57 53.21,32.547 83.02,46.816 14.91,7.141 30.37,13.821 46.4,19.871 7.98,3.051 16.15,5.879 24.42,8.602 l 13.03,4.051 c 4.91,1.258 9.53,2.32 13.92,3.226 36.02,7.602 73.85,8.563 110.86,5.203 37.1,-3.289 73.52,-10.55 109.39,-18.179 35.9,-7.641 71.39,-15.723 106.81,-20.774 36.19,-4.937 73.05,-8.508 110.41,-9.898 74.7,-2.848 147.72,2.699 216.53,16.48 69.63,14.34 136.36,32.7 197.44,55.379 61.24,22.672 117.27,49.86 167.76,79.262 50.99,29.898 97.59,57.871 128.25,93.57 15.34,17.77 26.17,36.867 31.91,57.051 5.93,19.898 6.27,39.547 0.35,56.137 -5.82,16.703 -17.65,29.871 -30.74,39.172 -13.14,9.339 -27.39,15.16 -40.57,18.968 -26.58,7.532 -48.86,7.422 -63.58,6.75 -14.83,-0.898 -22.59,-2.558 -22.59,-2.461 0.02,-0.109 7.45,2.563 22.25,5.301 14.78,2.481 37.28,5.352 66.22,0.531 14.39,-2.511 30.43,-7 46.52,-16.082 15.91,-8.957 32.26,-23.277 41.91,-44.078 9.8,-20.672 11.52,-46.191 6.54,-70.531 -4.55,-24.367 -15.97,-49.367 -32.11,-71.328 -32.56,-44.57 -80.95,-77.961 -130.23,-111.539 -50.44,-33.973 -107.78,-66 -171.13,-92.832 -63.44,-26.969 -132.09,-48.61 -204.91,-65.508 -73.84,-16.742 -152.48,-23.75 -232.34,-20.691 -39.95,1.5 -79.22,5.55 -117.6,11.328 -39.1,6.133 -75.89,15.301 -111.11,23.711 -35.23,8.441 -69.02,16.152 -101.74,20.242 -32.69,4.137 -64.29,4.508 -94.2,-0.332 -3.86,-0.629 -7.4,-1.27 -10.59,-1.899 l -10.89,-2.851 c -7.56,-2.07 -15.06,-4.238 -22.45,-6.649 -14.8,-4.722 -29.26,-10.05 -43.35,-15.871 -28.2,-11.57 -54.97,-24.941 -80.38,-39.101 -25.43,-14.16 -49.55,-29.059 -72.53,-43.918 -22.8,-15.012 -45.36,-29.481 -64.99,-43.961 -40.74,-29.879 -76.62,-57.59 -106,-84.352 -29.43,-26.648 -52.33,-52.207 -69.07,-74.699 -33.39,-45.238 -43.39,-75.937 -43.89,-75.527" /><path
         id="path162"
         style="fill:#393536;fill-opacity:1;fill-rule:nonzero;stroke:none"
         d="M 2488.76,83 2422.5,4.44922 152.367,4.44922 1909.09,1055.11 c 0,0 -124.74,-87.11 181.5,-564.032 C 2315.6,140.691 2488.76,83 2488.76,83" /><path
         id="path164"
         style="fill:#393536;fill-opacity:1;fill-rule:nonzero;stroke:none"
         d="M 2242.73,285.32 C 2109.54,192.289 1976.62,98.8594 1844.38,4.44922 l 578.12,0 L 2488.76,83 c 0,0 -99.69,33.34 -246.03,202.32" /><path
         id="path166"
         style="fill:#656263;fill-opacity:1;fill-rule:nonzero;stroke:none"
         d="M 2183.76,353.148 C 2286.36,193.379 2378.11,94.6016 2447.65,34.2695 L 2488.76,83 c 0,0 -136.33,45.59 -324.21,300.512 6.23,-9.973 12.58,-20.043 19.21,-30.364" /><path
         id="path168"
         style="fill:#4f4c4c;fill-opacity:1;fill-rule:nonzero;stroke:none"
         d="m 1904.48,858.699 c -48.71,159.141 4.61,196.411 4.61,196.411 L 152.367,4.44922 l 323.789,0 L 1904.48,858.699" /><path
         id="path170"
         style="fill:#231f20;fill-opacity:1;fill-rule:nonzero;stroke:none"
         d="m 2342.39,175.949 c 0,0 75.11,21.563 156.94,67.473 81.8,45.93 139.35,98.797 139.35,98.797 0,0 -75.13,-21.559 -156.94,-67.477 -81.81,-45.91 -139.35,-98.793 -139.35,-98.793" /><path
         id="path172"
         style="fill:#ffffff;fill-opacity:1;fill-rule:nonzero;stroke:none"
         d="m 2650.59,351.531 -308.2,-175.582 c 0,0 -139.24,144.41 -273.42,382.199 C 1934.79,795.98 1890.7,979.711 1890.7,979.711 l 259.58,152.599 c 0,0 -53.83,-151.79 201.3,-481.888 255.14,-330.082 299.01,-298.891 299.01,-298.891" /><path
         id="path174"
         style="fill:none;stroke:#231f20;stroke-width:10;stroke-linecap:butt;stroke-linejoin:miter;stroke-miterlimit:10;stroke-dasharray:none;stroke-opacity:1"
         d="m 2650.59,351.531 -308.2,-175.582 c 0,0 -139.24,144.41 -273.42,382.199 C 1934.79,795.98 1890.7,979.711 1890.7,979.711 l 259.58,152.599 c 0,0 -53.83,-151.79 201.3,-481.888 255.14,-330.082 299.01,-298.891 299.01,-298.891 z" /><path
         id="path176"
         style="fill:#d3d2d2;fill-opacity:1;fill-rule:nonzero;stroke:none"
         d="m 2392.66,598.129 c -83.77,-53.34 -165.14,-110.328 -243.14,-171.867 104.08,-158.16 192.87,-250.313 192.87,-250.313 l 308.04,175.492 c -2.84,-1.5 -46.74,-17.812 -257.77,246.688" /><path
         id="path178"
         style="fill:#231f20;fill-opacity:1;fill-rule:nonzero;stroke:none"
         d="m 1922.18,1066.13 c 13.38,4.69 25.82,4.62 36.37,3.65 21.2,-2.41 36.19,-8.31 46.29,-12.12 10.05,-3.98 15.12,-6.5 15.13,-6.46 0,-0.03 -5.48,1.51 -15.95,3.73 -10.41,2.05 -26.15,5.28 -45.75,4.45 -9.68,-0.54 -20.41,-2.34 -29.96,-7.38 -9.58,-5.02 -17.14,-13.59 -21.27,-25.2 -8.37,-23.48 -4.57,-55.741 3.88,-89.308 17.63,-67.89 54.07,-145.781 99.15,-229.043 45.42,-83.277 100.43,-172.41 162.43,-262.719 62.21,-90 125.34,-173.671 190.21,-240.429 16.25,-16.52 32.67,-31.891 49.3,-45.192 16.54,-13.211 33.66,-24.589 49.7,-30.738 7.96,-3.07 15.45,-4.562 21.41,-4.262 5.9,0.411 10.47,2.051 15.12,6.141 9.44,8.25 15.9,25.039 19.51,41.078 7.24,32.973 7.43,66.004 7.09,94.371 0,0.531 -0.04,0.992 -0.05,1.492 6.39,3.969 12.71,7.957 19.06,11.969 0.65,-3.859 1.33,-7.601 1.96,-11.629 4.18,-29.121 8.62,-62.519 4.73,-101.652 -1.12,-9.82 -2.88,-20.008 -6.26,-30.649 -3.4,-10.57 -8.4,-21.859 -17.56,-32.269 -8.9,-10.4922 -23.34,-18.7227 -37.96,-20.961 -14.62,-2.3789 -28.39,-0.3594 -40.77,3.0313 -24.8,7.0898 -45.89,19.3087 -66.14,32.8477 -20.17,13.691 -39.23,29.191 -57.86,45.82 -73.97,66.93 -142.19,150.711 -206.28,243.364 -63.77,92.886 -116.59,186.488 -157.78,275.187 -40.8,88.789 -70.97,172.711 -81.68,247.992 -2.51,18.828 -3.7,37.137 -2.62,54.758 1.11,17.54 4.45,34.69 12.28,49.54 7.58,14.96 20.91,26.14 34.27,30.59" /><path
         id="path180"
         style="fill:#bdbcbc;fill-opacity:1;fill-rule:nonzero;stroke:none"
         d="m 3798.26,1283.94 c -0.04,-34.38 27.46,-60.3 61.67,-57.9 278.83,19.63 557.67,39.21 836.52,58.83 34.21,2.39 62.2,32.23 62.27,66.57 -1.88,458.39 -33.82,913.1 -96.02,1367.28 -4.87,34 -36.78,59.61 -71.01,57.17 -278.87,-19.58 -557.73,-39.14 -836.62,-58.77 -34.23,-2.4 -57.82,-31.91 -52.98,-65.96 62.3,-454.12 94.26,-908.87 96.17,-1367.22" /><path
         id="path182"
         style="fill:#231f20;fill-opacity:1;fill-rule:nonzero;stroke:none"
         d="m 3798.26,1283.94 c -0.13,-0.02 -1.91,67.32 -7.56,188.9 -5.76,121.55 -15.66,297.38 -35.32,513.85 -9.82,108.24 -22.12,226.62 -37.57,353.4 -7.69,63.4 -16.21,128.88 -25.6,196.25 l -14.7,102.37 c -0.62,4.59 -1.28,7.74 -1.96,14.66 -0.53,6.21 -0.39,12.57 0.47,18.9 1.68,12.66 6.4,25.16 13.82,35.97 7.39,10.85 17.56,19.87 29.16,26.11 5.81,3.1 11.98,5.5 18.29,7.18 3.16,0.85 6.34,1.51 9.55,1.97 3.1,0.49 6.79,0.77 8.61,0.91 l 450.18,35.32 238.17,17.75 121.84,8.82 15.34,1.09 7.69,0.57 c 3.09,0.23 7.5,0.37 11.2,0.21 15.48,-0.56 30.55,-4.94 43.79,-12.2 26.42,-14.44 46.48,-41.11 50.96,-72.69 45.31,-330.34 70.24,-646.97 80.4,-935.4 5.08,-144.2 6.65,-281.27 5.59,-409.57 l -0.22,-23.98 -0.03,-3.01 -0.15,-4.05 c -0.19,-2.65 -0.46,-5.29 -0.87,-7.89 -0.81,-5.21 -2.11,-10.32 -3.83,-15.23 -6.94,-19.65 -20.49,-36.03 -37.58,-46.54 -8.55,-5.29 -18.01,-9.1 -27.86,-11.15 -2.47,-0.51 -4.95,-0.92 -7.45,-1.21 -2.46,-0.26 -5.19,-0.46 -6.84,-0.53 l -11.37,-0.61 -44.94,-2.42 -170.61,-8.98 c -217.41,-11.25 -393.4,-19.59 -515.03,-25.11 l -80.84,-3.63 c -5.94,-0.19 -11.31,-0.63 -17.05,-0.59 -5.63,0.13 -11,0.93 -15.91,2.39 -9.89,2.83 -17.9,7.96 -23.82,13.61 -11.97,11.53 -15.66,24.17 -17.09,32.13 -1.31,8.19 -0.74,12.43 -0.86,12.43 0.1,0.02 -0.18,-4.28 1.56,-12.27 1.85,-7.79 6.24,-19.92 18.25,-30.23 5.91,-5.06 13.73,-9.44 23.02,-11.58 4.65,-1.11 9.63,-1.57 14.81,-1.41 5.08,0.21 10.9,0.97 16.68,1.46 l 80.55,7.75 c 121.21,11.55 296.64,27.94 513.47,47.21 l 170.2,14.98 44.83,3.91 11.35,0.98 c 2.16,0.17 3.23,0.31 4.54,0.48 1.29,0.2 2.57,0.47 3.85,0.77 5.08,1.26 10,3.43 14.49,6.42 9.01,5.93 16.07,15.26 19.23,25.41 0.79,2.54 1.36,5.12 1.67,7.72 0.15,1.31 0.24,2.61 0.29,3.9 l -0.04,4.83 -0.51,23.8 c -2.7,127.63 -7.77,264.03 -15.85,407.32 -16.11,286.53 -44.94,601.08 -89.91,928.88 -1.25,9.77 -8.34,19.93 -18.14,25.21 -4.85,2.66 -10.1,4.14 -15.18,4.34 -1.44,0.05 -2.18,0.04 -4.21,-0.09 l -7.68,-0.54 -15.35,-1.05 -121.89,-8.28 -238.35,-15.72 -450.68,-28.01 c -2.66,-0.18 -3.47,-0.2 -4.8,-0.37 -1.25,-0.16 -2.47,-0.36 -3.65,-0.65 -2.37,-0.57 -4.63,-1.37 -6.73,-2.42 -4.16,-2.13 -7.83,-5.14 -10.54,-8.93 -2.74,-3.75 -4.61,-8.18 -5.39,-13 -0.88,-5.04 -0.39,-8.64 0.93,-18.91 l 12.29,-103.32 c 7.7,-67.9 14.45,-133.89 20.29,-197.75 11.74,-127.74 20.06,-246.9 25.89,-355.77 11.65,-217.74 13.5,-394.14 13.23,-515.94 -0.39,-121.83 -2.65,-189.13 -2.52,-189.13" /><path
         id="path184"
         style="fill:#5a3114;fill-opacity:1;fill-rule:nonzero;stroke:none"
         d="m 4204.71,2564.13 c 4.29,-25.3 28.27,-42.33 53.55,-38.05 25.33,4.3 42.32,28.3 38.06,53.57 -4.32,25.32 -28.27,42.3 -53.61,38.04 -25.27,-4.3 -42.31,-28.29 -38,-53.56" /><path
         id="path186"
         style="fill:#00adef;fill-opacity:1;fill-rule:nonzero;stroke:none"
         d="m 4204.55,2559.44 c 3.96,-23.3 26.08,-39 49.38,-35.04 23.3,3.97 38.98,26.06 35.02,49.37 -3.94,23.31 -26.05,38.99 -49.36,35.03 -23.29,-3.95 -38.98,-26.04 -35.04,-49.36" /><path
         id="path188"
         style="fill:#ffffff;fill-opacity:1;fill-rule:nonzero;stroke:none"
         d="m 4278.77,2565.71 c 2.47,0.46 4.16,2.78 3.73,5.28 -3.45,20.33 -22.77,34.04 -43.07,30.57 -2.49,-0.42 -4.19,-2.76 -3.75,-5.24 0.41,-2.49 2.78,-4.18 5.28,-3.77 15.33,2.6 29.94,-7.76 32.55,-23.1 0.4,-2.49 2.75,-4.17 5.26,-3.74" /><path
         id="path190"
         style="fill:#e19257;fill-opacity:1;fill-rule:nonzero;stroke:none"
         d="m 5040.27,876.961 c -38.22,273.129 -51.79,279.869 -18.47,449.219 33.3,169.35 37.54,462.64 -34.46,618.65 -71.97,156.02 -215.72,483.5 -341.75,432.46 -126.04,-51.02 -89.77,-130.52 -44.57,-208.36 45.2,-77.87 144.98,-201.02 146.18,-323.96 1.2,-122.95 30.08,-262.32 -10.83,-257.57 -40.92,4.76 -80.02,216.11 -102.52,304.33 -22.48,88.2 -143.87,278.18 -196.56,330.02 -52.7,51.82 -146.08,123.83 -215.77,67.83 -69.68,-56 -40.13,-149.07 23.68,-211.15 63.84,-62.08 122.16,-94.4 163.06,-182.28 40.9,-87.88 70.43,-264.08 83.89,-320.09 13.43,-56 -9.06,-134.06 -29.9,-54.78 -20.83,79.27 -105.28,236.05 -183.32,341.7 -78.05,105.64 -192.72,226.05 -264.95,200.37 -72.2,-25.68 -105.95,-59.64 -52.37,-132.85 53.58,-73.22 155.67,-159.02 202.51,-245.8 46.86,-86.77 91.92,-297.03 99.1,-335.74 7.15,-38.7 -40.7,-62.95 -67.36,-18.62 -26.69,44.32 -175.39,315.45 -194.8,370.36 -19.41,54.92 -122.49,195.95 -138.81,51.3 0,0 -34.86,-28.01 -4.97,-139.49 29.85,-111.47 205.16,-309.95 218.81,-433.66 13.66,-123.72 21.02,-281.381 115.79,-376.768 94.75,-95.391 246.48,-116.562 265.86,-254.613 19.39,-138.047 565.4,-77.028 565.4,-77.028 l 17.13,406.52" /><path
         id="path192"
         style="fill:#5a3114;fill-opacity:1;fill-rule:nonzero;stroke:none"
         d="m 4434.76,663.16 c 0.01,0.11 -17.05,4.481 -47.17,15.27 -29.93,10.968 -73.66,28.281 -122.27,61.422 -24.18,16.589 -49.3,37.25 -73.44,62.23 -12.09,12.449 -23.96,25.938 -35.51,40.289 l -4.3,5.438 -2.15,2.742 -1.09,1.371 c -0.14,0.148 -0.1,0.058 -0.09,0 l -4.64,5.219 -4.92,5.961 c -6.41,8.07 -12.34,16.679 -17.75,25.668 -21.82,36.121 -34.14,77.652 -42.91,118.74 -8.91,41.29 -14.24,82.83 -23.85,122.21 -18.95,79.94 -51.72,152.57 -84.69,218.65 l -12.38,24.57 c -4.28,8.09 -8.43,17.35 -12.09,25.47 -7.46,16.74 -14,33.27 -19.81,49.39 -11.61,32.27 -20.04,62.97 -26.42,91.11 -12.64,56.33 -17.7,102.29 -21.04,133.98 -3.16,31.72 -4.16,49.31 -4.2,49.31 l 14.39,-47.25 c 9.4,-30.29 22.61,-74.28 42.66,-126.39 10.08,-26.01 22,-53.98 36.47,-82.96 7.22,-14.52 15.02,-29.28 23.57,-44.2 4.44,-7.64 8.27,-14.5 13.25,-22.12 l 14.72,-23.79 c 39.28,-64.62 79.18,-141.63 100.23,-230.24 10.77,-44.62 15.06,-87.09 21.71,-125.75 6.42,-38.719 14.88,-74.078 29.51,-103.621 3.63,-7.387 7.61,-14.418 11.95,-21.07 l 3.32,-4.93 3.89,-5.277 c 0.74,-0.903 1.4,-1.922 1.9,-2.704 l 0.87,-1.359 1.74,-2.738 3.48,-5.41 c 9.3,-14.309 18.82,-27.832 28.53,-40.532 19.38,-25.418 39.71,-47.328 59.81,-65.988 40.3,-37.269 79.08,-61.672 106.01,-78.07 27.13,-16.262 42.77,-24.551 42.71,-24.641" /><path
         id="path194"
         style="fill:#5a3114;fill-opacity:1;fill-rule:nonzero;stroke:none"
         d="m 4741.98,1606.92 c -0.48,0 8.29,31.83 10.56,90.1 0.98,29.08 0.08,64.73 -5.74,105.31 -5.97,40.35 -16.39,86.49 -36.84,132.23 -20.62,45.95 -54.11,91.02 -89.19,142.86 -17.39,26.05 -35.03,54.25 -49.56,86.18 -14.53,32.31 -25.35,67.83 -27.34,107.51 -0.75,19.84 0.95,41.13 8.57,62.65 3.85,10.7 9.3,21.35 16.45,31.11 7.28,9.89 15.84,18.21 25.64,25.41 19.67,14.65 45.42,22.43 69.67,22.08 24.41,-0.12 47.28,-6.82 67.73,-16.92 20.49,-10.21 38.93,-23.9 54.81,-41.21 3.96,-4.34 7.75,-8.92 11.33,-13.77 l 8.81,-12.38 16.83,-24.45 c 22.27,-32.94 43.59,-67.23 63.75,-102.8 80.69,-142.12 133.87,-291.82 154.83,-432.81 2.63,-17.5 4.77,-35.35 6.5,-52.08 l 5.09,-50.03 c 3.11,-33.01 5.51,-65.35 6.52,-96.82 2.06,-62.89 -1.84,-122.55 -14.09,-175.53 -12.48,-52.46 -28.15,-96.62 -35.04,-136.8 -7.53,-39.78 -5.31,-75.55 -5.23,-105 0.5,-29.47 -0.41,-52.51 -2.25,-67.94 -1.78,-15.45 -3.71,-23.36 -3.63,-23.37 -0.08,-0.01 0.84,8.11 0.78,23.52 0,15.43 -1.66,38.01 -5.28,67.11 -1.7,14.56 -3.79,30.8 -5.24,48.86 -1.55,17.97 -1.92,38.27 0,59.55 3.31,42.74 15.45,89.79 23.22,140.25 7.47,50.21 7.18,106.33 1.4,166.5 -2.86,30.12 -7.03,61.27 -11.86,93.51 -5.04,32.21 -9.77,65.92 -16.19,98.72 -25.89,132.68 -80.03,273.28 -157.39,409.59 -19.32,34.1 -39.59,67.15 -60.6,99.1 l -15.87,23.73 -7.81,11.36 c -2.08,2.96 -4.36,5.84 -6.82,8.62 -9.83,11.21 -22.25,20.91 -35.37,27.83 -13.15,6.95 -27.13,11.1 -39.85,11.52 -12.78,0.46 -24,-2.59 -33.87,-9.19 -10.35,-6.99 -17.44,-15.93 -22.38,-27.82 -4.8,-11.84 -7,-26.11 -7.05,-40.88 0.03,-29.78 7.3,-60.73 18.28,-88.83 11.17,-28.65 25.82,-55.74 41.08,-82 30.66,-52.3 62.87,-102.56 81.42,-154.4 18.36,-51.93 24.63,-100.34 26.98,-142.75 2.07,-42.45 -0.73,-78.89 -4.85,-108.24 -8.62,-58.78 -21.39,-89.13 -20.91,-89.19" /><path
         id="path196"
         style="fill:#5a3114;fill-opacity:1;fill-rule:nonzero;stroke:none"
         d="m 4488.7,1461.51 c -0.28,-0.04 2.69,26.45 -1.02,73.59 -3.7,47.02 -14.94,114.71 -40.98,194.27 -13.01,39.72 -29.66,82.44 -51.23,126.01 -10.8,21.78 -22.88,43.74 -36.56,65.26 -6.86,10.75 -14.07,21.42 -21.81,31.75 l -5.88,7.72 c -1.85,2.41 -3.54,4.39 -5.59,6.7 -3.97,4.5 -8.44,9.12 -13.15,13.78 -18.93,18.66 -40.72,37.78 -62.42,58.45 -21.74,20.75 -43.96,42.86 -64.4,69.41 -10.15,13.35 -19.9,27.85 -27.98,44.72 -7.94,16.81 -14.51,36.59 -14.59,59.15 -0.32,22.51 8.04,46.28 20.97,63.72 6.31,8.91 13.97,16.59 20.08,22.47 6.62,6.28 13.66,12.46 21.46,18.29 15.45,11.53 34.22,22.25 57.02,26.59 11.27,2.15 23.25,2.36 34.59,0.72 11.36,-1.64 21.95,-5.06 31.42,-9.31 18.97,-8.62 33.79,-19.99 46.92,-31.43 6.56,-5.76 12.67,-11.66 18.5,-17.58 l 15.77,-16.01 c 41.76,-41.24 89.09,-79.41 127.19,-125.63 38.63,-46.21 64.18,-97.81 80.88,-146.99 16.76,-49.34 25.45,-96.21 32.48,-138.44 6.88,-42.28 12.09,-80.21 17.97,-113.26 5.78,-33.05 12.08,-61.21 18.44,-83.97 12.74,-45.55 24.41,-69.49 24.1,-69.57 0.31,0.13 -14.98,21.88 -33.91,66.14 -9.42,22.09 -19.42,49.86 -29.12,82.56 -9.77,32.66 -19.16,70.27 -29.99,111.13 -10.94,40.8 -23.45,84.99 -42.41,129.15 -18.91,44.02 -44.84,88.04 -80.68,126.34 -35.73,38.96 -82.28,73.41 -128.97,116.61 -5.69,5.24 -11.91,11.32 -17.05,16.33 -5.12,4.94 -10.3,9.67 -15.53,14.06 -10.42,8.76 -21.18,16.17 -31.14,20.42 -10.09,4.26 -18.31,5.29 -27.12,3.57 -8.81,-1.68 -19.11,-6.83 -29.51,-14.67 -5.21,-3.88 -10.37,-8.35 -15.45,-13.16 -5.5,-5.26 -9.22,-9.06 -12.22,-13.21 -6.04,-8.35 -8.72,-16.07 -8.93,-25.24 -0.65,-18.52 11.79,-43.43 27.9,-65.53 16.2,-22.48 35.85,-43.8 55.79,-64.5 20.04,-20.83 40.66,-40.74 60.6,-62.67 4.99,-5.55 9.94,-11.24 14.81,-17.42 2.38,-3.05 4.96,-6.51 7.13,-9.69 l 6.07,-9.08 c 7.96,-12.11 15.13,-24.34 21.8,-36.53 13.28,-24.4 24.41,-48.73 34.03,-72.57 19.15,-47.76 32.4,-93.56 41.81,-135.83 18.77,-84.62 21.79,-154.96 19.28,-202.89 -2.53,-48.07 -9.67,-73.73 -9.37,-73.73" /><path
         id="path198"
         style="fill:#5a3114;fill-opacity:1;fill-rule:nonzero;stroke:none"
         d="m 4263.22,1348.96 -16.74,61.36 c -10.99,39.32 -25.51,96.9 -51.48,163.7 -13.14,33.29 -29.57,68.64 -51.13,103.86 -10.76,17.6 -22.8,35.16 -36.21,52.44 -6.71,8.63 -13.75,17.2 -21.12,25.68 -3.65,4.19 -7.55,8.54 -11.23,12.53 -2.91,3.05 -7.13,7 -11.31,10.82 -34.92,31.34 -75.09,65.04 -111.5,107.15 -18.05,21.48 -36.27,44.35 -49,76.22 -5.98,15.9 -10.91,35.63 -6.49,58.36 2.23,11.16 7.09,22.33 13.72,31.48 6.57,9.21 14.52,16.46 22.49,22.18 8.09,5.79 16.17,9.9 23.53,13.32 7.63,3.51 15.59,6.58 23.86,8.97 16.5,4.84 34.14,7 51.34,6.09 34.8,-1.79 65.53,-15.43 90.34,-31.46 25.05,-16.26 45.61,-35.19 64.17,-54.17 18.48,-19.06 34.88,-38.41 50.42,-56.95 l 22.75,-27 c 7.32,-8.41 15.69,-18.08 22.98,-27.07 14.85,-18.36 28.41,-36.72 40.85,-54.86 24.79,-36.33 45.2,-71.68 62.12,-104.76 33.83,-66.2 53.24,-123.21 63.72,-163.05 10.49,-39.92 12.71,-62.58 12.95,-62.52 -0.41,-0.56 -25.24,88.65 -105.37,208.82 -19.92,29.97 -43.07,61.82 -69.77,94.2 -13.4,16.16 -27.68,32.43 -42.91,48.5 -7.79,8.19 -15.2,15.54 -23.96,24.29 l -25.18,26.04 c -16.62,17.45 -33.3,34.91 -50.88,51.27 -17.54,16.29 -36.03,31.59 -55.56,43.26 -19.5,11.65 -39.88,19.21 -59.6,19.75 -9.89,0.33 -19.72,-0.99 -29.6,-3.96 -4.93,-1.47 -9.87,-3.4 -14.79,-5.71 -5.18,-2.44 -9.48,-4.73 -12.71,-7.1 -6.83,-5.05 -8.93,-8.62 -9.96,-12.92 -1.12,-4.47 -0.34,-12.61 3.12,-21.95 6.88,-18.91 21.17,-39.59 36.33,-58.55 15.39,-19.16 32.35,-37.43 49.55,-55.12 l 52.2,-52.58 c 4.45,-4.64 8.77,-9.14 13.7,-15.06 4.04,-5.06 7.73,-9.8 11.46,-14.76 7.38,-9.85 14.37,-19.78 20.92,-29.76 13.16,-19.97 24.61,-40.16 34.47,-60.2 19.8,-40.08 33.21,-79.31 42.87,-115.34 18.97,-72.24 25.17,-131.46 30.12,-172.12 4.53,-40.75 6.48,-63.32 6.52,-63.32" /><path
         id="path200"
         style="fill:#5a3114;fill-opacity:1;fill-rule:nonzero;stroke:none"
         d="m 4319.49,678.922 c -0.04,0.019 1.06,1.316 2.7,4.129 1.5,2.769 3.85,7.347 3.32,13.34 -0.41,5.98 -4.61,12.488 -11.47,18.129 -6.84,5.699 -16.03,10.902 -26.77,16.031 -10.75,5.121 -23.12,10.078 -36.84,15.828 -6.88,2.934 -14.05,5.93 -21.68,10.043 -3.72,2.027 -7.99,4.57 -11.8,8.008 -3.23,2.84 -6.52,5.761 -9.73,8.8 -25.94,24.399 -51.36,56.211 -74.43,94.508 -22.82,38.442 -44.09,83.153 -56.62,136.052 -11.6,50.66 -20.43,104.33 -33.89,158.33 -6.73,26.95 -14.8,53.89 -25.08,80.21 -5.19,13.14 -10.92,26.13 -17.28,38.89 -6.7,13.14 -13.59,26.37 -21.03,39.63 -29.44,53.11 -64.78,107.15 -96.7,167.27 -31.92,59.91 -58.16,124.6 -66.37,192.19 -2.09,16.83 -2.97,33.76 -2.67,50.58 0.21,8.4 0.64,16.76 1.44,25.08 0.81,8.99 2.41,18.49 5.06,27.72 5.39,18.38 14.59,37.5 32.64,52.39 9,7.29 20.57,13.15 33.24,15.11 12.62,2.1 25.52,0.13 36.05,-4.11 21.31,-8.81 34.14,-23.5 43.93,-37.27 5.13,-7.44 8.22,-13.28 11.83,-19.25 l 10.43,-17.95 c 13.67,-23.85 26.41,-47.31 38.23,-70.22 23.65,-45.83 43.67,-89.56 60.1,-130.24 7.65,-20.27 16.3,-38.35 24.13,-56.28 l 22.61,-50.25 36.19,-80.73 c 19.58,-44.49 29.51,-69.47 29.58,-69.45 l -38.81,64.66 -45.6,75.77 -28.05,47.68 c -9.65,16.97 -20.68,35.2 -30.25,54.7 -19.79,38.05 -43.01,78.91 -69.48,121.78 -13.24,21.44 -27.29,43.4 -42.1,65.76 l -11.28,16.82 c -3.88,5.58 -7.79,11.74 -10.89,15.55 -6.6,8.55 -14.63,14.83 -20.3,16.4 -2.84,0.82 -4.74,0.72 -6.42,0.24 -1.66,-0.47 -3.54,-1.48 -5.8,-3.55 -4.55,-4.11 -9.31,-12.8 -11.68,-23.19 -1.23,-5.26 -1.97,-10.72 -2.26,-16.82 -0.4,-6.8 -0.48,-13.65 -0.4,-20.57 0.26,-13.79 1.43,-27.75 3.6,-41.79 8.5,-56.4 31.95,-113.19 62.08,-169.65 30.04,-56.73 64.57,-111.48 93.99,-168.3 7.4,-14.16 14.35,-28.56 21.03,-42.93 6.76,-14.88 12.7,-29.9 17.88,-44.9 10.3,-30.02 17.6,-59.91 23.19,-88.87 11.1,-57.95 16.32,-112.4 23.75,-161.85 7.33,-47.181 23.35,-91.021 41.26,-128.849 18.12,-37.922 38.82,-70.34 60.38,-95.793 2.69,-3.187 5.41,-6.238 8.12,-9.207 2.06,-2.429 4.64,-4.461 7.71,-6.64 6.03,-4.231 12.66,-8.032 18.97,-11.68 12.75,-7.262 24.71,-13.879 35.09,-20.602 10.39,-6.711 19.35,-13.429 25.96,-20.687 6.66,-7.109 10.61,-15.512 10.06,-22.481 -0.43,-6.961 -3.65,-11.23 -5.56,-13.82 -2.08,-2.57 -3.36,-3.672 -3.31,-3.699" /><path
         id="path202"
         style="fill:#231f20;fill-opacity:1;fill-rule:nonzero;stroke:none"
         d="m 5142.22,361.121 c 0,0 -32.34,71.16 -50.48,163.192 -18.15,92.046 -15.25,170.148 -15.25,170.148 0,0 32.34,-71.152 50.48,-163.199 18.15,-92.051 15.25,-170.141 15.25,-170.141" /><path
         id="path204"
         style="fill:#393536;fill-opacity:1;fill-rule:nonzero;stroke:none"
         d="m 4070.41,244.48 32.09,-240.03078 1196.76,0 -113.03,429.69878 c 0,0 14.67,-151.429 -546.93,-227.847 -412.63,-56.149 -568.89,38.179 -568.89,38.179" /><path
         id="path206"
         style="fill:#393536;fill-opacity:1;fill-rule:nonzero;stroke:none"
         d="m 4935.34,266.039 c 0.27,-87.199 1.06,-174.4296 3.69,-261.58978 l 360.23,0 -113.03,429.69878 c 0,0 8.79,-91.457 -250.89,-168.109" /><path
         id="path208"
         style="fill:#4f4c4c;fill-opacity:1;fill-rule:nonzero;stroke:none"
         d="m 4326.53,190.191 c -181.68,9.391 -256.12,54.289 -256.12,54.289 l 32.09,-240.03078 205.25,0 c 7.49,61.79298 13.97,123.67978 18.78,185.74178" /><path
         id="path210"
         style="fill:#231f20;fill-opacity:1;fill-rule:nonzero;stroke:none"
         d="m 4236.11,193.41 c 0,0 -32.34,71.149 -50.48,163.192 -18.15,92.046 -15.24,170.148 -15.24,170.148 0,0 32.32,-71.148 50.47,-163.199 18.14,-92.039 15.25,-170.141 15.25,-170.141" /><path
         id="path212"
         style="fill:#ffffff;fill-opacity:1;fill-rule:nonzero;stroke:none"
         d="m 4169.74,541.859 66.37,-348.449 c 0,0 200.23,-12.25 468.25,39.961 268.02,52.199 436.42,137.871 436.42,137.871 l -52.28,296.539 c 0,0 -80.6,-139.472 -497.31,-159.511 -416.72,-20.032 -421.45,33.589 -421.45,33.589" /><path
         id="path214"
         style="fill:#d3d2d2;fill-opacity:1;fill-rule:nonzero;stroke:none"
         d="m 5088.5,667.781 c 0,0 -80.6,-139.472 -497.31,-159.511 -47.72,-2.29 -89.98,-3.61 -127.51,-4.161 0.97,-100.488 4.52,-202.828 0.28,-304.281 69.36,5.922 151.07,16.141 240.4,33.543 268.02,52.199 436.42,137.871 436.42,137.871 l -52.28,296.539" /><path
         id="path216"
         style="fill:#231f20;fill-opacity:1;fill-rule:nonzero;stroke:none"
         d="m 5186.13,451.27 c -5.12,13.218 -13.24,22.64 -20.84,30.031 -15.58,14.57 -29.8,22.16 -39.25,27.359 -9.56,5.059 -14.75,7.289 -14.73,7.332 -0.04,-0.043 4.7,-3.191 13.18,-9.73 8.32,-6.582 20.98,-16.473 33.07,-31.91 5.88,-7.723 11.48,-17.063 13.83,-27.602 2.4,-10.539 0.78,-21.859 -5.37,-32.539 -12.45,-21.602 -39.45,-39.629 -70.47,-54.992 -63.11,-30.629 -146.02,-53.449 -238.62,-73.16 -92.85,-19.469 -196.34,-35.438 -305.31,-46.86 -108.85,-11.07 -213.48,-17.32 -306.35,-11.277 -23.12,1.648 -45.48,4.16 -66.38,8.18 -20.78,4.039 -40.55,9.668 -55.65,17.886 -7.51,4.075 -13.47,8.801 -17.12,13.524 -3.53,4.758 -5.23,9.308 -5.14,15.5 0.14,12.527 8.73,28.34 18.59,41.488 20.39,26.91 45.4,48.48 67.21,66.629 0.4,0.34 0.77,0.621 1.17,0.941 -1.12,7.41 -2.19,14.828 -3.24,22.262 -3.38,-2.012 -6.66,-3.922 -10.15,-6.07 -24.86,-15.711 -53.15,-33.992 -80.42,-62.332 -6.74,-7.231 -13.36,-15.2 -19.25,-24.668 -5.83,-9.43 -11.18,-20.571 -13.16,-34.301 -2.21,-13.57 0.91,-29.902 8.68,-42.481 7.67,-12.667 18.14,-21.839 28.77,-29.058 21.46,-14.274 44.45,-22.383 67.91,-29 23.5,-6.473 47.66,-10.922 72.39,-14.301 98.93,-12.859 206.94,-10.41 319.03,0.942 112.05,11.738 217.56,32.277 311.78,58.496 94.03,26.562 177.46,58.062 241.7,98.75 15.96,10.312 30.65,21.281 43.35,33.543 12.63,12.226 23.53,25.89 29.75,41.488 6.45,15.469 6.32,32.871 1.04,45.93" /><path
         id="path218"
         style="fill:#231f20;fill-opacity:1;fill-rule:nonzero;stroke:none"
         d="m 177.039,54.4219 c 0,0 361.524,259.5001 828.271,545.6801 466.76,286.179 861.99,490.688 861.99,490.688 0,0 -361.52,-259.501 -828.27,-545.681 C 572.281,258.922 177.039,54.4219 177.039,54.4219" /><path
         id="path220"
         style="fill:#231f20;fill-opacity:1;fill-rule:nonzero;stroke:none"
         d="M 5319.14,4.44922 C 5242.34,252.352 5185.09,405.34 5185.09,405.34 c 0,0 28.71,-156.988 84.73,-400.89078 16.12,-1.41797 33.21,1.37109 49.32,0" /><path
         id="path222"
         style="fill:#231f20;fill-opacity:1;fill-rule:nonzero;stroke:none"
         d="m 2747.1,0 c 11.34,102.762 23.3,236.582 29.18,383.332 1.36,33.578 2.31,66.469 2.98,98.539 -20.87,3.527 -41.43,8.488 -61.77,14.531 -2.21,-35.781 -4.14,-72.683 -5.66,-110.48 C 2705.92,238.469 2707.15,103.539 2710.26,0 l 36.84,0" /><path
         id="path224"
         style="fill:#5a3114;fill-opacity:1;fill-rule:nonzero;stroke:none"
         d="m 3051.05,2766.26 c -2.36,0 -4.7,0.07 -7.01,0.2 -34.01,1.92 -70.85,16.69 -106.48,30.98 -27.86,11.19 -56.59,22.74 -75.88,24.09 -1.28,0.07 -2.72,0.1 -4.19,0.1 -19.32,0 -45.45,-6.31 -73.12,-12.99 -33.24,-8.04 -67.52,-16.34 -98.66,-16.34 -3.06,0 -6.09,0.08 -9.07,0.26 -28.98,1.62 -51.61,11.57 -67.26,29.57 -18.79,21.59 -26.21,52.74 -22.69,95.25 7.98,96.06 63.89,110.4 96.51,110.4 2.37,0 4.72,-0.07 7.04,-0.2 34.04,-1.91 70.91,-16.69 106.57,-31 27.81,-11.15 56.52,-22.66 75.77,-24.03 1.29,-0.07 2.74,-0.1 4.22,-0.1 19.37,0 45.52,6.32 73.21,13.01 33.25,8.04 67.49,16.32 98.56,16.32 3.07,0 6.09,-0.08 9.08,-0.26 28.96,-1.62 51.58,-11.56 67.23,-29.56 18.8,-21.6 26.21,-52.78 22.67,-95.31 -7.99,-96.04 -63.89,-110.39 -96.5,-110.39" /><path
         id="path226"
         style="fill:#5a3114;fill-opacity:1;fill-rule:nonzero;stroke:none"
         d="m 3044.6,2776.45 c -32.39,1.82 -68.48,16.3 -103.39,30.31 -28.5,11.44 -57.97,23.28 -78.82,24.74 -0.01,0 -0.02,0 -0.03,0 -21.06,1.19 -49.9,-5.79 -80.43,-13.16 -35.77,-8.65 -72.75,-17.6 -104.73,-15.8 l -0.02,0 c -26.17,1.46 -46.44,10.26 -60.25,26.15 -16.93,19.45 -23.56,48.2 -20.27,87.86 7.26,87.43 54.59,103.21 93.02,101.05 32.41,-1.82 68.51,-16.3 103.43,-30.31 28.49,-11.42 57.94,-23.24 78.77,-24.71 0,0 0.02,0 0.03,0 21.12,-1.18 49.95,5.79 80.49,13.17 35.75,8.64 72.72,17.59 104.68,15.79 26.17,-1.46 46.45,-10.26 60.25,-26.14 16.94,-19.46 23.56,-48.23 20.25,-87.92 -7.27,-87.4 -54.57,-103.18 -92.98,-101.03" /><path
         id="path228"
         style="fill:#5a3114;fill-opacity:1;fill-rule:nonzero;stroke:none"
         d="m 3127.08,2868.59 c -13.75,-165.07 -170.32,-33.58 -253.86,-27.68 -81.64,5.78 -260.93,-101.87 -247.21,63.45 13.71,165.04 170.35,33.66 253.87,27.72 81.67,-5.81 260.96,101.92 247.2,-63.49" /><path
         id="path230"
         style="fill:#ffffff;fill-opacity:1;fill-rule:nonzero;stroke:none"
         d="m 2868.47,2872.22 c 70.42,-4.64 198.72,3.79 258.61,-3.65 0,0 0,0.01 0,0.02 13.76,165.41 -165.53,57.68 -247.2,63.49 -83.52,5.94 -240.16,137.32 -253.87,-27.72 -0.06,-0.8 -0.05,-1.47 -0.11,-2.24 63.83,-2.19 175.44,-25.49 242.57,-29.9" /><path
         id="path232"
         style="fill:#ffffff;fill-opacity:1;fill-rule:nonzero;stroke:none"
         d="m 2868.32,2872.77 c -64.92,4.28 -178.61,5.94 -242.91,12 2.17,-136.55 169.67,-38.32 247.81,-43.86 80.66,-5.7 229.31,-128.35 251.88,11.66 -60.17,0.39 -184.52,15.46 -256.78,20.2" /><path
         id="path234"
         style="fill:#d3d2d2;fill-opacity:1;fill-rule:nonzero;stroke:none"
         d="m 2425.39,559.059 c 0,0 186.5,-256.989 224.45,-200.598 37.95,56.379 30.36,143.129 30.36,143.129 l -254.81,57.469" /><path
         id="path236"
         style="fill:#231f20;fill-opacity:1;fill-rule:nonzero;stroke:none"
         d="m 2670.72,496.121 c 0.03,-2.402 0.1,-4.68 0.11,-7.16 -0.06,-23.332 -0.62,-50.512 -6.88,-77.16 -3.07,-12.922 -8.67,-26.301 -15.72,-31.942 -3.45,-2.808 -6.35,-3.597 -10.47,-3.769 -4.12,-0.059 -9.76,1.109 -15.93,3.609 -12.46,5.02 -26.2,14.313 -39.53,25.172 -13.39,10.93 -26.7,23.59 -39.9,37.211 -52.67,55 -104.25,123.957 -155.36,197.93 -50.97,74.238 -96.49,147.297 -134.32,215.488 -37.54,68.129 -68.12,131.809 -83.29,187.13 -7.28,27.34 -10.66,53.55 -4.36,72.3 3.1,9.28 8.83,16.11 16.38,20.29 7.55,4.18 16.25,5.84 24.15,6.41 16.01,0.97 29.05,-1.43 37.67,-2.99 8.66,-1.68 13.19,-2.87 13.21,-2.83 -0.03,-0.03 -4.16,2.13 -12.4,5.57 -8.28,3.3 -20.58,8.38 -38.21,10.66 -8.77,0.93 -19.18,1.16 -30.53,-2.67 -11.35,-3.63 -22.84,-13.06 -29.41,-25.7 -6.75,-12.53 -9.7,-26.92 -10.81,-41.59 -1.07,-14.75 -0.26,-30.01 1.66,-45.7 8.22,-62.7 32.55,-132.419 65.8,-206.099 33.58,-73.582 76.95,-151.16 129.66,-227.972 53.01,-76.59 109.68,-145.649 171.46,-200.84 15.57,-13.731 31.51,-26.52 48.45,-37.828 17.02,-11.192 34.74,-21.352 55.96,-27.262 10.59,-2.84 22.49,-4.547 35.31,-2.399 12.81,2.032 25.58,9.391 33.3,18.579 7.96,9.152 12.15,18.89 14.97,27.902 2.8,9.051 4.2,17.66 5.05,25.891 2.88,32.628 -1.13,60.089 -4.89,84.046 -6.99,2.082 -14.07,3.883 -21.13,5.723" /><path
         id="path238"
         style="fill:#bdbcbc;fill-opacity:1;fill-rule:nonzero;stroke:none"
         d="m 4338.41,709.219 c 0,0 -204.55,-95.297 -160.39,-166.199 44.16,-70.899 289.39,-46.5 289.39,-46.5 0,0 -4.65,80.21 -30.21,119.722 -25.57,39.508 -67.41,60.438 -97.63,97.629" /><path
         id="path240"
         style="fill:#231f20;fill-opacity:1;fill-rule:nonzero;stroke:none"
         d="m 5022.23,750.852 c 0,-0.043 4.31,-1.793 12.28,-5.821 7.89,-4.16 19.74,-10.23 32.89,-22.172 6.43,-6.058 13.34,-13.828 17.8,-24.961 4.6,-10.988 4.88,-25.859 -0.47,-39.039 -5.14,-13.269 -14.2,-24.871 -24.65,-35.218 -10.51,-10.379 -22.67,-19.672 -35.84,-28.379 -53.05,-34.453 -121.88,-61.172 -199.51,-83.653 -77.8,-22.211 -164.95,-39.539 -257.6,-49.257 -92.68,-9.372 -182.01,-11.063 -264.1,0.14 -20.53,2.93 -40.61,6.778 -60.2,12.309 -19.55,5.699 -38.8,12.59 -57.07,24.898 -9,6.231 -18.04,14.16 -24.72,25.313 -6.78,11.058 -9.46,25.57 -7.47,37.398 1.8,11.969 6.5,21.5 11.51,29.481 5.08,8.007 10.72,14.66 16.42,20.648 23.09,23.492 46.7,38.293 67.46,51.012 20.88,12.488 39.4,21.918 54.61,29.347 30.49,14.731 47.88,21.524 47.84,21.622 0.05,-0.079 -15.43,-10.579 -42.45,-30.532 -13.45,-10 -29.8,-22.359 -47.78,-37.558 -17.72,-15.18 -38.04,-33.258 -54.25,-55.309 -7.85,-10.723 -14.38,-23.652 -14.12,-32.672 0.12,-4.461 1.39,-7.179 3.95,-10.41 2.63,-3.187 7.18,-6.699 13.08,-9.789 11.9,-6.23 27.89,-10.66 44.79,-13.75 17.01,-3.098 35.27,-5.02 54.22,-6.199 76.01,-4.399 161.97,1.09 251.4,10.199 89.55,9.379 174.69,22.148 251.12,37.602 76.21,15.66 144.5,33.707 196.42,58.046 25.55,12.211 47.68,26.633 57.85,43.59 5.06,8.383 6.55,17.184 4.81,25.633 -1.68,8.461 -6.07,16.16 -10.76,22.539 -9.67,12.809 -19.96,21.172 -26.73,26.719 -6.91,5.512 -10.75,8.18 -10.73,8.223" /></g></g></svg>
